<?xml version="1.0" encoding="utf-8" standalone="no"?>
<!DOCTYPE svg PUBLIC "-//W3C//DTD SVG 1.1//EN" "http://www.w3.org/Graphics/SVG/1.1/DTD/svg11.dtd">
<svg width="3000px" height="3000px" version="1.1" xmlns="http://www.w3.org/2000/svg" xmlns:xlink="http://www.w3.org/1999/xlink">
<g id="bg">
<rect x="0" y="0" width="3000px" height="3000px" style="fill:rgb(255,255,255);"/>
</g>
<g id="ideograms">
<path d="M1500.000,170.000 A1330.000,1330.000 40.000 0,1 2005.861,269.958 L2013.468,251.461 A1350.000,1350.000 0.000 0,0 1500.000,150.000 Z" style="stroke-width:2.0;stroke:rgb(115,115,115);stroke-linecap:round;fill:rgb(153,102,0);" />
<text x="1793.4" y="90.2" font-size="39.0px" font-family="CMUBright-Roman" style="text-anchor:start;fill:rgb(0,0,0);" transform="rotate(281.2,1793.4,90.2)" >MT-ND1</text>
<path d="M1500.000,170.000 A1330.000,1330.000 40.000 0,1 2005.861,269.958 L2013.468,251.461 A1350.000,1350.000 0.000 0,0 1500.000,150.000 Z" style="stroke-width:2.0;stroke:rgb(115,115,115);stroke-linecap:round;fill:none;" />
<path d="M2005.861,269.958 A1330.000,1330.000 40.000 0,1 2468.311,588.258 L2482.872,574.547 A1350.000,1350.000 0.000 0,0 2013.468,251.461 Z" style="stroke-width:2.0;stroke:rgb(115,115,115);stroke-linecap:round;fill:rgb(102,102,0);" />
<text x="2328.3" y="322.1" font-size="39.0px" font-family="CMUBright-Roman" style="text-anchor:start;fill:rgb(0,0,0);" transform="rotate(304.5,2328.3,322.1)" >MT-ND2</text>
<path d="M2005.861,269.958 A1330.000,1330.000 40.000 0,1 2468.311,588.258 L2482.872,574.547 A1350.000,1350.000 0.000 0,0 2013.468,251.461 Z" style="stroke-width:2.0;stroke:rgb(115,115,115);stroke-linecap:round;fill:none;" />
<path d="M2468.311,588.258 A1330.000,1330.000 40.000 0,1 2819.501,1333.215 L2839.343,1330.707 A1350.000,1350.000 0.000 0,0 2482.872,574.547 Z" style="stroke-width:2.0;stroke:rgb(115,115,115);stroke-linecap:round;fill:rgb(153,153,30);" />
<text x="2808.8" y="899.6" font-size="39.0px" font-family="CMUBright-Roman" style="text-anchor:start;fill:rgb(0,0,0);" transform="rotate(334.8,2808.8,899.6)" >MT-CO1</text>
<path d="M2468.311,588.258 A1330.000,1330.000 40.000 0,1 2819.501,1333.215 L2839.343,1330.707 A1350.000,1350.000 0.000 0,0 2482.872,574.547 Z" style="stroke-width:2.0;stroke:rgb(115,115,115);stroke-linecap:round;fill:none;" />
<path d="M2819.501,1333.215 A1330.000,1330.000 40.000 0,1 2814.400,1703.105 L2834.166,1706.160 A1350.000,1350.000 0.000 0,0 2839.343,1330.707 Z" style="stroke-width:2.0;stroke:rgb(115,115,115);stroke-linecap:round;fill:rgb(204,0,0);" />
<text x="2939.6" y="1534.9" font-size="39.0px" font-family="CMUBright-Roman" style="text-anchor:start;fill:rgb(0,0,0);" transform="rotate(0.8,2939.6,1534.9)" >MT-CO2</text>
<path d="M2819.501,1333.215 A1330.000,1330.000 40.000 0,1 2814.400,1703.105 L2834.166,1706.160 A1350.000,1350.000 0.000 0,0 2839.343,1330.707 Z" style="stroke-width:2.0;stroke:rgb(115,115,115);stroke-linecap:round;fill:none;" />
<path d="M2814.400,1703.105 A1330.000,1330.000 40.000 0,1 2792.674,1812.879 L2812.113,1817.584 A1350.000,1350.000 0.000 0,0 2834.166,1706.160 Z" style="stroke-width:2.0;stroke:rgb(115,115,115);stroke-linecap:round;fill:rgb(255,0,0);" />
<text x="2909.6" y="1794.3" font-size="39.0px" font-family="CMUBright-Roman" style="text-anchor:start;fill:rgb(0,0,0);" transform="rotate(11.2,2909.6,1794.3)" >MT-ATP8</text>
<path d="M2814.400,1703.105 A1330.000,1330.000 40.000 0,1 2792.674,1812.879 L2812.113,1817.584 A1350.000,1350.000 0.000 0,0 2834.166,1706.160 Z" style="stroke-width:2.0;stroke:rgb(115,115,115);stroke-linecap:round;fill:none;" />
<path d="M2792.674,1812.879 A1330.000,1330.000 40.000 0,1 2657.298,2155.409 L2674.701,2165.264 A1350.000,1350.000 0.000 0,0 2812.113,1817.584 Z" style="stroke-width:2.0;stroke:rgb(115,115,115);stroke-linecap:round;fill:rgb(255,0,204);" />
<text x="2833.6" y="2043.2" font-size="39.0px" font-family="CMUBright-Roman" style="text-anchor:start;fill:rgb(0,0,0);" transform="rotate(21.6,2833.6,2043.2)" >MT-ATP6</text>
<path d="M2792.674,1812.879 A1330.000,1330.000 40.000 0,1 2657.298,2155.409 L2674.701,2165.264 A1350.000,1350.000 0.000 0,0 2812.113,1817.584 Z" style="stroke-width:2.0;stroke:rgb(115,115,115);stroke-linecap:round;fill:none;" />
<path d="M2657.298,2155.409 A1330.000,1330.000 40.000 0,1 2392.478,2486.095 L2405.899,2500.923 A1350.000,1350.000 0.000 0,0 2674.701,2165.264 Z" style="stroke-width:2.0;stroke:rgb(115,115,115);stroke-linecap:round;fill:rgb(255,204,204);" />
<text x="2614.6" y="2411.8" font-size="39.0px" font-family="CMUBright-Roman" style="text-anchor:start;fill:rgb(0,0,0);" transform="rotate(38.7,2614.6,2411.8)" >MT-CO3</text>
<path d="M2657.298,2155.409 A1330.000,1330.000 40.000 0,1 2392.478,2486.095 L2405.899,2500.923 A1350.000,1350.000 0.000 0,0 2674.701,2165.264 Z" style="stroke-width:2.0;stroke:rgb(115,115,115);stroke-linecap:round;fill:none;" />
<path d="M2392.478,2486.095 A1330.000,1330.000 40.000 0,1 2245.095,2601.696 L2256.299,2618.263 A1350.000,1350.000 0.000 0,0 2405.899,2500.923 Z" style="stroke-width:2.0;stroke:rgb(115,115,115);stroke-linecap:round;fill:rgb(255,153,0);" />
<text x="2376.9" y="2642.2" font-size="39.0px" font-family="CMUBright-Roman" style="text-anchor:start;fill:rgb(0,0,0);" transform="rotate(51.9,2376.9,2642.2)" >MT-ND3</text>
<path d="M2392.478,2486.095 A1330.000,1330.000 40.000 0,1 2245.095,2601.696 L2256.299,2618.263 A1350.000,1350.000 0.000 0,0 2405.899,2500.923 Z" style="stroke-width:2.0;stroke:rgb(115,115,115);stroke-linecap:round;fill:none;" />
<path d="M2245.095,2601.696 A1330.000,1330.000 40.000 0,1 2106.747,2683.536 L2115.871,2701.334 A1350.000,1350.000 0.000 0,0 2256.299,2618.263 Z" style="stroke-width:2.0;stroke:rgb(115,115,115);stroke-linecap:round;fill:rgb(255,204,0);" />
<text x="2220.6" y="2746.7" font-size="39.0px" font-family="CMUBright-Roman" style="text-anchor:start;fill:rgb(0,0,0);" transform="rotate(59.4,2220.6,2746.7)" >MT-ND4L</text>
<path d="M2245.095,2601.696 A1330.000,1330.000 40.000 0,1 2106.747,2683.536 L2115.871,2701.334 A1350.000,1350.000 0.000 0,0 2256.299,2618.263 Z" style="stroke-width:2.0;stroke:rgb(115,115,115);stroke-linecap:round;fill:none;" />
<path d="M2106.747,2683.536 A1330.000,1330.000 40.000 0,1 1381.970,2824.752 L1380.196,2844.674 A1350.000,1350.000 0.000 0,0 2115.871,2701.334 Z" style="stroke-width:2.0;stroke:rgb(115,115,115);stroke-linecap:round;fill:rgb(255,255,0);" />
<text x="1761.1" y="2916.1" font-size="39.0px" font-family="CMUBright-Roman" style="text-anchor:start;fill:rgb(0,0,0);" transform="rotate(79.0,1761.1,2916.1)" >MT-ND4</text>
<path d="M2106.747,2683.536 A1330.000,1330.000 40.000 0,1 1381.970,2824.752 L1380.196,2844.674 A1350.000,1350.000 0.000 0,0 2115.871,2701.334 Z" style="stroke-width:2.0;stroke:rgb(115,115,115);stroke-linecap:round;fill:none;" />
<path d="M1381.970,2824.752 A1330.000,1330.000 40.000 0,1 519.668,2398.805 L504.927,2412.321 A1350.000,1350.000 0.000 0,0 1380.196,2844.674 Z" style="stroke-width:2.0;stroke:rgb(115,115,115);stroke-linecap:round;fill:rgb(204,255,0);" />
<text x="875.7" y="2797.6" font-size="39.0px" font-family="CMUBright-Roman" style="text-anchor:end;fill:rgb(0,0,0);" transform="rotate(-63.7,875.7,2797.6)" >MT-ND5</text>
<path d="M1381.970,2824.752 A1330.000,1330.000 40.000 0,1 519.668,2398.805 L504.927,2412.321 A1350.000,1350.000 0.000 0,0 1380.196,2844.674 Z" style="stroke-width:2.0;stroke:rgb(115,115,115);stroke-linecap:round;fill:none;" />
<path d="M519.668,2398.805 A1330.000,1330.000 40.000 0,1 351.095,2170.013 L333.818,2180.089 A1350.000,1350.000 0.000 0,0 504.927,2412.321 Z" style="stroke-width:2.0;stroke:rgb(115,115,115);stroke-linecap:round;fill:rgb(0,255,0);" />
<text x="349.7" y="2366.2" font-size="39.0px" font-family="CMUBright-Roman" style="text-anchor:end;fill:rgb(0,0,0);" transform="rotate(-36.4,349.7,2366.2)" >MT-ND6</text>
<path d="M519.668,2398.805 A1330.000,1330.000 40.000 0,1 351.095,2170.013 L333.818,2180.089 A1350.000,1350.000 0.000 0,0 504.927,2412.321 Z" style="stroke-width:2.0;stroke:rgb(115,115,115);stroke-linecap:round;fill:none;" />
<path d="M351.095,2170.013 A1330.000,1330.000 40.000 0,1 172.572,1582.676 L152.611,1583.919 A1350.000,1350.000 0.000 0,0 333.818,2180.089 Z" style="stroke-width:2.0;stroke:rgb(115,115,115);stroke-linecap:round;fill:rgb(53,128,0);" />
<text x="126.7" y="1933.1" font-size="39.0px" font-family="CMUBright-Roman" style="text-anchor:end;fill:rgb(0,0,0);" transform="rotate(-16.9,126.7,1933.1)" >MT-CYB</text>
<path d="M351.095,2170.013 A1330.000,1330.000 40.000 0,1 172.572,1582.676 L152.611,1583.919 A1350.000,1350.000 0.000 0,0 333.818,2180.089 Z" style="stroke-width:2.0;stroke:rgb(115,115,115);stroke-linecap:round;fill:none;" />
<path d="M172.572,1582.676 A1330.000,1330.000 40.000 0,1 240.541,1072.609 L221.602,1066.182 A1350.000,1350.000 0.000 0,0 152.611,1583.919 Z" style="stroke-width:2.0;stroke:rgb(115,115,115);stroke-linecap:round;fill:rgb(0,0,204);" />
<text x="70.8" y="1324.2" font-size="39.0px" font-family="CMUBright-Roman" style="text-anchor:end;fill:rgb(0,0,0);" transform="rotate(7.6,70.8,1324.2)" >MT-RNR1</text>
<path d="M172.572,1582.676 A1330.000,1330.000 40.000 0,1 240.541,1072.609 L221.602,1066.182 A1350.000,1350.000 0.000 0,0 152.611,1583.919 Z" style="stroke-width:2.0;stroke:rgb(115,115,115);stroke-linecap:round;fill:none;" />
<path d="M240.541,1072.609 A1330.000,1330.000 40.000 0,1 741.235,407.674 L729.825,391.248 A1350.000,1350.000 0.000 0,0 221.602,1066.182 Z" style="stroke-width:2.0;stroke:rgb(115,115,115);stroke-linecap:round;fill:rgb(102,153,255);" />
<text x="341.0" y="645.4" font-size="39.0px" font-family="CMUBright-Roman" style="text-anchor:end;fill:rgb(0,0,0);" transform="rotate(37.0,341.0,645.4)" >MT-RNR2</text>
<path d="M240.541,1072.609 A1330.000,1330.000 40.000 0,1 741.235,407.674 L729.825,391.248 A1350.000,1350.000 0.000 0,0 221.602,1066.182 Z" style="stroke-width:2.0;stroke:rgb(115,115,115);stroke-linecap:round;fill:none;" />
<path d="M741.235,407.674 A1330.000,1330.000 40.000 0,1 772.780,386.424 L761.845,369.678 A1350.000,1350.000 0.000 0,0 729.825,391.248 Z" style="stroke-width:2.0;stroke:rgb(115,115,115);stroke-linecap:round;fill:rgb(153,204,255);" />
<text x="683.5" y="313.9" font-size="39.0px" font-family="CMUBright-Roman" style="text-anchor:end;fill:rgb(0,0,0);" transform="rotate(56.0,683.5,313.9)" >MT-TF</text>
<path d="M741.235,407.674 A1330.000,1330.000 40.000 0,1 772.780,386.424 L761.845,369.678 A1350.000,1350.000 0.000 0,0 729.825,391.248 Z" style="stroke-width:2.0;stroke:rgb(115,115,115);stroke-linecap:round;fill:none;" />
<path d="M772.780,386.424 A1330.000,1330.000 40.000 0,1 803.994,366.653 L793.528,349.610 A1350.000,1350.000 0.000 0,0 761.845,369.678 Z" style="stroke-width:2.0;stroke:rgb(115,115,115);stroke-linecap:round;fill:rgb(0,255,255);" />
<text x="717.2" y="291.3" font-size="39.0px" font-family="CMUBright-Roman" style="text-anchor:end;fill:rgb(0,0,0);" transform="rotate(57.6,717.2,291.3)" >MT-TV</text>
<path d="M772.780,386.424 A1330.000,1330.000 40.000 0,1 803.994,366.653 L793.528,349.610 A1350.000,1350.000 0.000 0,0 761.845,369.678 Z" style="stroke-width:2.0;stroke:rgb(115,115,115);stroke-linecap:round;fill:none;" />
<path d="M803.994,366.653 A1330.000,1330.000 40.000 0,1 838.572,346.131 L828.625,328.780 A1350.000,1350.000 0.000 0,0 793.528,349.610 Z" style="stroke-width:2.0;stroke:rgb(115,115,115);stroke-linecap:round;fill:rgb(204,255,255);" />
<text x="752.6" y="269.1" font-size="39.0px" font-family="CMUBright-Roman" style="text-anchor:end;fill:rgb(0,0,0);" transform="rotate(59.3,752.6,269.1)" >MT-TL1</text>
<path d="M803.994,366.653 A1330.000,1330.000 40.000 0,1 838.572,346.131 L828.625,328.780 A1350.000,1350.000 0.000 0,0 793.528,349.610 Z" style="stroke-width:2.0;stroke:rgb(115,115,115);stroke-linecap:round;fill:none;" />
<path d="M838.572,346.131 A1330.000,1330.000 40.000 0,1 870.879,328.203 L861.419,310.582 A1350.000,1350.000 0.000 0,0 828.625,328.780 Z" style="stroke-width:2.0;stroke:rgb(115,115,115);stroke-linecap:round;fill:rgb(153,0,204);" />
<text x="788.6" y="248.0" font-size="39.0px" font-family="CMUBright-Roman" style="text-anchor:end;fill:rgb(0,0,0);" transform="rotate(61.0,788.6,248.0)" >MT-TI</text>
<path d="M838.572,346.131 A1330.000,1330.000 40.000 0,1 870.879,328.203 L861.419,310.582 A1350.000,1350.000 0.000 0,0 828.625,328.780 Z" style="stroke-width:2.0;stroke:rgb(115,115,115);stroke-linecap:round;fill:none;" />
<path d="M870.879,328.203 A1330.000,1330.000 40.000 0,1 905.130,310.450 L896.185,292.562 A1350.000,1350.000 0.000 0,0 861.419,310.582 Z" style="stroke-width:2.0;stroke:rgb(115,115,115);stroke-linecap:round;fill:rgb(204,51,255);" />
<text x="822.7" y="229.2" font-size="39.0px" font-family="CMUBright-Roman" style="text-anchor:end;fill:rgb(0,0,0);" transform="rotate(62.6,822.7,229.2)" >MT-TQ</text>
<path d="M870.879,328.203 A1330.000,1330.000 40.000 0,1 905.130,310.450 L896.185,292.562 A1350.000,1350.000 0.000 0,0 861.419,310.582 Z" style="stroke-width:2.0;stroke:rgb(115,115,115);stroke-linecap:round;fill:none;" />
<path d="M905.130,310.450 A1330.000,1330.000 40.000 0,1 937.911,294.614 L929.458,276.488 A1350.000,1350.000 0.000 0,0 896.185,292.562 Z" style="stroke-width:2.0;stroke:rgb(115,115,115);stroke-linecap:round;fill:rgb(204,153,255);" />
<text x="860.6" y="209.7" font-size="39.0px" font-family="CMUBright-Roman" style="text-anchor:end;fill:rgb(0,0,0);" transform="rotate(64.2,860.6,209.7)" >MT-TM</text>
<path d="M905.130,310.450 A1330.000,1330.000 40.000 0,1 937.911,294.614 L929.458,276.488 A1350.000,1350.000 0.000 0,0 896.185,292.562 Z" style="stroke-width:2.0;stroke:rgb(115,115,115);stroke-linecap:round;fill:none;" />
<path d="M937.911,294.614 A1330.000,1330.000 40.000 0,1 971.113,279.681 L963.159,261.330 A1350.000,1350.000 0.000 0,0 929.458,276.488 Z" style="stroke-width:2.0;stroke:rgb(115,115,115);stroke-linecap:round;fill:rgb(102,102,102);" />
<text x="896.1" y="192.7" font-size="39.0px" font-family="CMUBright-Roman" style="text-anchor:end;fill:rgb(0,0,0);" transform="rotate(65.8,896.1,192.7)" >MT-TW</text>
<path d="M937.911,294.614 A1330.000,1330.000 40.000 0,1 971.113,279.681 L963.159,261.330 A1350.000,1350.000 0.000 0,0 929.458,276.488 Z" style="stroke-width:2.0;stroke:rgb(115,115,115);stroke-linecap:round;fill:none;" />
<path d="M971.113,279.681 A1330.000,1330.000 40.000 0,1 1005.215,265.460 L997.775,246.896 A1350.000,1350.000 0.000 0,0 963.159,261.330 Z" style="stroke-width:2.0;stroke:rgb(115,115,115);stroke-linecap:round;fill:rgb(153,153,153);" />
<text x="932.4" y="176.6" font-size="39.0px" font-family="CMUBright-Roman" style="text-anchor:end;fill:rgb(0,0,0);" transform="rotate(67.4,932.4,176.6)" >MT-TA</text>
<path d="M971.113,279.681 A1330.000,1330.000 40.000 0,1 1005.215,265.460 L997.775,246.896 A1350.000,1350.000 0.000 0,0 963.159,261.330 Z" style="stroke-width:2.0;stroke:rgb(115,115,115);stroke-linecap:round;fill:none;" />
<path d="M1005.215,265.460 A1330.000,1330.000 40.000 0,1 1041.739,251.442 L1034.848,232.667 A1350.000,1350.000 0.000 0,0 997.775,246.896 Z" style="stroke-width:2.0;stroke:rgb(115,115,115);stroke-linecap:round;fill:rgb(204,204,204);" />
<text x="970.5" y="160.9" font-size="39.0px" font-family="CMUBright-Roman" style="text-anchor:end;fill:rgb(0,0,0);" transform="rotate(69.0,970.5,160.9)" >MT-TN</text>
<path d="M1005.215,265.460 A1330.000,1330.000 40.000 0,1 1041.739,251.442 L1034.848,232.667 A1350.000,1350.000 0.000 0,0 997.775,246.896 Z" style="stroke-width:2.0;stroke:rgb(115,115,115);stroke-linecap:round;fill:none;" />
<path d="M1041.739,251.442 A1330.000,1330.000 40.000 0,1 1075.054,239.714 L1068.664,220.762 A1350.000,1350.000 0.000 0,0 1034.848,232.667 Z" style="stroke-width:2.0;stroke:rgb(115,115,115);stroke-linecap:round;fill:rgb(153,102,0);" />
<text x="1007.7" y="146.8" font-size="39.0px" font-family="CMUBright-Roman" style="text-anchor:end;fill:rgb(0,0,0);" transform="rotate(70.6,1007.7,146.8)" >MT-TC</text>
<path d="M1041.739,251.442 A1330.000,1330.000 40.000 0,1 1075.054,239.714 L1068.664,220.762 A1350.000,1350.000 0.000 0,0 1034.848,232.667 Z" style="stroke-width:2.0;stroke:rgb(115,115,115);stroke-linecap:round;fill:none;" />
<path d="M1075.054,239.714 A1330.000,1330.000 40.000 0,1 1108.668,228.875 L1102.783,209.760 A1350.000,1350.000 0.000 0,0 1068.664,220.762 Z" style="stroke-width:2.0;stroke:rgb(115,115,115);stroke-linecap:round;fill:rgb(102,102,0);" />
<text x="1044.3" y="134.0" font-size="39.0px" font-family="CMUBright-Roman" style="text-anchor:end;fill:rgb(0,0,0);" transform="rotate(72.1,1044.3,134.0)" >MT-TY</text>
<path d="M1075.054,239.714 A1330.000,1330.000 40.000 0,1 1108.668,228.875 L1102.783,209.760 A1350.000,1350.000 0.000 0,0 1068.664,220.762 Z" style="stroke-width:2.0;stroke:rgb(115,115,115);stroke-linecap:round;fill:none;" />
<path d="M1108.668,228.875 A1330.000,1330.000 40.000 0,1 1144.129,218.495 L1138.777,199.224 A1350.000,1350.000 0.000 0,0 1102.783,209.760 Z" style="stroke-width:2.0;stroke:rgb(115,115,115);stroke-linecap:round;fill:rgb(153,153,30);" />
<text x="1081.1" y="122.3" font-size="39.0px" font-family="CMUBright-Roman" style="text-anchor:end;fill:rgb(0,0,0);" transform="rotate(73.7,1081.1,122.3)" >MT-TS1</text>
<path d="M1108.668,228.875 A1330.000,1330.000 40.000 0,1 1144.129,218.495 L1138.777,199.224 A1350.000,1350.000 0.000 0,0 1102.783,209.760 Z" style="stroke-width:2.0;stroke:rgb(115,115,115);stroke-linecap:round;fill:none;" />
<path d="M1144.129,218.495 A1330.000,1330.000 40.000 0,1 1179.337,209.235 L1174.515,189.825 A1350.000,1350.000 0.000 0,0 1138.777,199.224 Z" style="stroke-width:2.0;stroke:rgb(115,115,115);stroke-linecap:round;fill:rgb(204,0,0);" />
<text x="1119.7" y="111.1" font-size="39.0px" font-family="CMUBright-Roman" style="text-anchor:end;fill:rgb(0,0,0);" transform="rotate(75.3,1119.7,111.1)" >MT-TD</text>
<path d="M1144.129,218.495 A1330.000,1330.000 40.000 0,1 1179.337,209.235 L1174.515,189.825 A1350.000,1350.000 0.000 0,0 1138.777,199.224 Z" style="stroke-width:2.0;stroke:rgb(115,115,115);stroke-linecap:round;fill:none;" />
<path d="M1179.337,209.235 A1330.000,1330.000 40.000 0,1 1215.846,200.709 L1211.573,181.171 A1350.000,1350.000 0.000 0,0 1174.515,189.825 Z" style="stroke-width:2.0;stroke:rgb(115,115,115);stroke-linecap:round;fill:rgb(255,0,0);" />
<text x="1158.4" y="101.1" font-size="39.0px" font-family="CMUBright-Roman" style="text-anchor:end;fill:rgb(0,0,0);" transform="rotate(76.9,1158.4,101.1)" >MT-TK</text>
<path d="M1179.337,209.235 A1330.000,1330.000 40.000 0,1 1215.846,200.709 L1211.573,181.171 A1350.000,1350.000 0.000 0,0 1174.515,189.825 Z" style="stroke-width:2.0;stroke:rgb(115,115,115);stroke-linecap:round;fill:none;" />
<path d="M1215.846,200.709 A1330.000,1330.000 40.000 0,1 1251.514,193.419 L1247.777,173.771 A1350.000,1350.000 0.000 0,0 1211.573,181.171 Z" style="stroke-width:2.0;stroke:rgb(115,115,115);stroke-linecap:round;fill:rgb(255,0,204);" />
<text x="1196.9" y="92.3" font-size="39.0px" font-family="CMUBright-Roman" style="text-anchor:end;fill:rgb(0,0,0);" transform="rotate(78.4,1196.9,92.3)" >MT-TG</text>
<path d="M1215.846,200.709 A1330.000,1330.000 40.000 0,1 1251.514,193.419 L1247.777,173.771 A1350.000,1350.000 0.000 0,0 1211.573,181.171 Z" style="stroke-width:2.0;stroke:rgb(115,115,115);stroke-linecap:round;fill:none;" />
<path d="M1251.514,193.419 A1330.000,1330.000 40.000 0,1 1285.759,187.369 L1282.537,167.630 A1350.000,1350.000 0.000 0,0 1247.777,173.771 Z" style="stroke-width:2.0;stroke:rgb(115,115,115);stroke-linecap:round;fill:rgb(255,204,204);" />
<text x="1235.2" y="84.6" font-size="39.0px" font-family="CMUBright-Roman" style="text-anchor:end;fill:rgb(0,0,0);" transform="rotate(80.0,1235.2,84.6)" >MT-TR</text>
<path d="M1251.514,193.419 A1330.000,1330.000 40.000 0,1 1285.759,187.369 L1282.537,167.630 A1350.000,1350.000 0.000 0,0 1247.777,173.771 Z" style="stroke-width:2.0;stroke:rgb(115,115,115);stroke-linecap:round;fill:none;" />
<path d="M1285.759,187.369 A1330.000,1330.000 40.000 0,1 1322.304,181.924 L1319.632,162.103 A1350.000,1350.000 0.000 0,0 1282.537,167.630 Z" style="stroke-width:2.0;stroke:rgb(115,115,115);stroke-linecap:round;fill:rgb(255,153,0);" />
<text x="1273.5" y="77.9" font-size="39.0px" font-family="CMUBright-Roman" style="text-anchor:end;fill:rgb(0,0,0);" transform="rotate(81.5,1273.5,77.9)" >MT-TH</text>
<path d="M1285.759,187.369 A1330.000,1330.000 40.000 0,1 1322.304,181.924 L1319.632,162.103 A1350.000,1350.000 0.000 0,0 1282.537,167.630 Z" style="stroke-width:2.0;stroke:rgb(115,115,115);stroke-linecap:round;fill:none;" />
<path d="M1322.304,181.924 A1330.000,1330.000 40.000 0,1 1353.585,178.084 L1351.383,158.205 A1350.000,1350.000 0.000 0,0 1319.632,162.103 Z" style="stroke-width:2.0;stroke:rgb(115,115,115);stroke-linecap:round;fill:rgb(255,204,0);" />
<text x="1309.7" y="72.6" font-size="39.0px" font-family="CMUBright-Roman" style="text-anchor:end;fill:rgb(0,0,0);" transform="rotate(83.0,1309.7,72.6)" >MT-TS2</text>
<path d="M1322.304,181.924 A1330.000,1330.000 40.000 0,1 1353.585,178.084 L1351.383,158.205 A1350.000,1350.000 0.000 0,0 1319.632,162.103 Z" style="stroke-width:2.0;stroke:rgb(115,115,115);stroke-linecap:round;fill:none;" />
<path d="M1353.585,178.084 A1330.000,1330.000 40.000 0,1 1391.445,174.438 L1389.813,154.504 A1350.000,1350.000 0.000 0,0 1351.383,158.205 Z" style="stroke-width:2.0;stroke:rgb(115,115,115);stroke-linecap:round;fill:rgb(255,255,0);" />
<text x="1347.5" y="68.1" font-size="39.0px" font-family="CMUBright-Roman" style="text-anchor:end;fill:rgb(0,0,0);" transform="rotate(84.5,1347.5,68.1)" >MT-TL2</text>
<path d="M1353.585,178.084 A1330.000,1330.000 40.000 0,1 1391.445,174.438 L1389.813,154.504 A1350.000,1350.000 0.000 0,0 1351.383,158.205 Z" style="stroke-width:2.0;stroke:rgb(115,115,115);stroke-linecap:round;fill:none;" />
<path d="M1391.445,174.438 A1330.000,1330.000 40.000 0,1 1428.309,171.934 L1427.231,151.963 A1350.000,1350.000 0.000 0,0 1389.813,154.504 Z" style="stroke-width:2.0;stroke:rgb(115,115,115);stroke-linecap:round;fill:rgb(204,255,0);" />
<text x="1388.0" y="64.4" font-size="39.0px" font-family="CMUBright-Roman" style="text-anchor:end;fill:rgb(0,0,0);" transform="rotate(86.1,1388.0,64.4)" >MT-TE</text>
<path d="M1391.445,174.438 A1330.000,1330.000 40.000 0,1 1428.309,171.934 L1427.231,151.963 A1350.000,1350.000 0.000 0,0 1389.813,154.504 Z" style="stroke-width:2.0;stroke:rgb(115,115,115);stroke-linecap:round;fill:none;" />
<path d="M1428.309,171.934 A1330.000,1330.000 40.000 0,1 1463.598,170.498 L1463.051,150.506 A1350.000,1350.000 0.000 0,0 1427.231,151.963 Z" style="stroke-width:2.0;stroke:rgb(115,115,115);stroke-linecap:round;fill:rgb(0,255,0);" />
<text x="1427.0" y="61.9" font-size="39.0px" font-family="CMUBright-Roman" style="text-anchor:end;fill:rgb(0,0,0);" transform="rotate(87.7,1427.0,61.9)" >MT-TT</text>
<path d="M1428.309,171.934 A1330.000,1330.000 40.000 0,1 1463.598,170.498 L1463.051,150.506 A1350.000,1350.000 0.000 0,0 1427.231,151.963 Z" style="stroke-width:2.0;stroke:rgb(115,115,115);stroke-linecap:round;fill:none;" />
<path d="M1463.598,170.498 A1330.000,1330.000 40.000 0,1 1500.000,170.000 L1500.000,150.000 A1350.000,1350.000 0.000 0,0 1463.051,150.506 Z" style="stroke-width:2.0;stroke:rgb(115,115,115);stroke-linecap:round;fill:rgb(53,128,0);" />
<text x="1465.8" y="60.4" font-size="39.0px" font-family="CMUBright-Roman" style="text-anchor:end;fill:rgb(0,0,0);" transform="rotate(89.2,1465.8,60.4)" >MT-TP</text>
<path d="M1463.598,170.498 A1330.000,1330.000 40.000 0,1 1500.000,170.000 L1500.000,150.000 A1350.000,1350.000 0.000 0,0 1463.051,150.506 Z" style="stroke-width:2.0;stroke:rgb(115,115,115);stroke-linecap:round;fill:none;" />
</g>
<defs>
<pattern id="hline-sparse" width="10" height="10" patternTransform="rotate(0 0 0)" patternUnits="userSpaceOnUse"><line x1="0" y1="0" x2="10" y2="0" style="stroke:black;stroke-width:2" /></pattern>
<pattern id="checker" width="10" height="10" patternTransform="rotate(45 0 0)" patternUnits="userSpaceOnUse"><line x1="0" y1="0" x2="10" y2="0" style="stroke:black;stroke-width:2" /><line x1="0" y1="0" x2="0" y2="10" style="stroke:black;stroke-width:2" /></pattern>
<pattern id="checker" width="10" height="10" patternTransform="rotate(45 0 0)" patternUnits="userSpaceOnUse"><line x1="0" y1="0" x2="10" y2="0" style="stroke:black;stroke-width:5" /><line x1="0" y1="0" x2="0" y2="10" style="stroke:black;stroke-width:4" /></pattern>
<pattern id="hline" width="10" height="10" patternTransform="rotate(0 0 0)" patternUnits="userSpaceOnUse"><line x1="0" y1="0" x2="10" y2="0" style="stroke:black;stroke-width:5" /></pattern>
<pattern id="vline-sparse" width="10" height="10" patternTransform="rotate(0 0 0)" patternUnits="userSpaceOnUse"><line x1="0" y1="0" x2="0" y2="10" style="stroke:black;stroke-width:2" /></pattern>
<pattern id="vline" width="10" height="10" patternTransform="rotate(0 0 0)" patternUnits="userSpaceOnUse"><line x1="0" y1="0" x2="0" y2="10" style="stroke:black;stroke-width:5" /></pattern>
</defs>
</svg>
