<?xml version="1.0" encoding="utf-8" standalone="no"?>
<!DOCTYPE svg PUBLIC "-//W3C//DTD SVG 1.1//EN" "http://www.w3.org/Graphics/SVG/1.1/DTD/svg11.dtd">
<svg width="3000px" height="3000px" version="1.1" xmlns="http://www.w3.org/2000/svg" xmlns:xlink="http://www.w3.org/1999/xlink">
<g id="bg">
<rect x="0" y="0" width="3000px" height="3000px" style="fill:rgb(255,255,255);"/>
</g>
<g id="ideograms">
<path d="M1500.000,170.000 A1330.000,1330.000 40.000 0,1 1930.044,241.444 L1936.511,222.519 A1350.000,1350.000 0.000 0,0 1500.000,150.000 Z" style="stroke-width:2.0;stroke:rgb(115,115,115);stroke-linecap:round;fill:rgb(153,102,0);" />
<text x="1750.3" y="81.9" font-size="39.0px" font-family="CMUBright-Roman" style="text-anchor:start;fill:rgb(0,0,0);" transform="rotate(279.4,1750.3,81.9)" >MT-ND1</text>
<path d="M1500.000,170.000 A1330.000,1330.000 40.000 0,1 1930.044,241.444 L1936.511,222.519 A1350.000,1350.000 0.000 0,0 1500.000,150.000 Z" style="stroke-width:2.0;stroke:rgb(115,115,115);stroke-linecap:round;fill:none;" />
<path d="M1963.255,253.286 A1330.000,1330.000 40.000 0,1 2371.648,495.446 L2384.756,480.340 A1350.000,1350.000 0.000 0,0 1970.221,234.539 Z" style="stroke-width:2.0;stroke:rgb(115,115,115);stroke-linecap:round;fill:rgb(102,102,0);" />
<text x="2246.9" y="268.8" font-size="39.0px" font-family="CMUBright-Roman" style="text-anchor:start;fill:rgb(0,0,0);" transform="rotate(300.7,2246.9,268.8)" >MT-ND2</text>
<path d="M1963.255,253.286 A1330.000,1330.000 40.000 0,1 2371.648,495.446 L2384.756,480.340 A1350.000,1350.000 0.000 0,0 1970.221,234.539 Z" style="stroke-width:2.0;stroke:rgb(115,115,115);stroke-linecap:round;fill:none;" />
<path d="M2397.971,518.905 A1330.000,1330.000 40.000 0,1 2771.260,1109.105 L2790.376,1103.226 A1350.000,1350.000 0.000 0,0 2411.474,504.151 Z" style="stroke-width:2.0;stroke:rgb(115,115,115);stroke-linecap:round;fill:rgb(153,153,30);" />
<text x="2725.0" y="743.0" font-size="39.0px" font-family="CMUBright-Roman" style="text-anchor:start;fill:rgb(0,0,0);" transform="rotate(327.7,2725.0,743.0)" >MT-CO1</text>
<path d="M2397.971,518.905 A1330.000,1330.000 40.000 0,1 2771.260,1109.105 L2790.376,1103.226 A1350.000,1350.000 0.000 0,0 2411.474,504.151 Z" style="stroke-width:2.0;stroke:rgb(115,115,115);stroke-linecap:round;fill:none;" />
<path d="M2781.175,1142.941 A1330.000,1330.000 40.000 0,1 2829.123,1451.705 L2849.110,1450.979 A1350.000,1350.000 0.000 0,0 2800.441,1137.572 Z" style="stroke-width:2.0;stroke:rgb(115,115,115);stroke-linecap:round;fill:rgb(204,0,0);" />
<text x="2925.2" y="1293.9" font-size="39.0px" font-family="CMUBright-Roman" style="text-anchor:start;fill:rgb(0,0,0);" transform="rotate(351.2,2925.2,1293.9)" >MT-CO2</text>
<path d="M2781.175,1142.941 A1330.000,1330.000 40.000 0,1 2829.123,1451.705 L2849.110,1450.979 A1350.000,1350.000 0.000 0,0 2800.441,1137.572 Z" style="stroke-width:2.0;stroke:rgb(115,115,115);stroke-linecap:round;fill:none;" />
<path d="M2829.936,1486.955 A1330.000,1330.000 40.000 0,1 2827.509,1581.365 L2847.471,1582.589 A1350.000,1350.000 0.000 0,0 2849.935,1486.759 Z" style="stroke-width:2.0;stroke:rgb(115,115,115);stroke-linecap:round;fill:rgb(255,0,0);" />
<text x="2939.1" y="1552.0" font-size="39.0px" font-family="CMUBright-Roman" style="text-anchor:start;fill:rgb(0,0,0);" transform="rotate(1.5,2939.1,1552.0)" >MT-ATP8</text>
<path d="M2829.936,1486.955 A1330.000,1330.000 40.000 0,1 2827.509,1581.365 L2847.471,1582.589 A1350.000,1350.000 0.000 0,0 2849.935,1486.759 Z" style="stroke-width:2.0;stroke:rgb(115,115,115);stroke-linecap:round;fill:none;" />
<path d="M2824.886,1616.526 A1330.000,1330.000 40.000 0,1 2761.571,1921.115 L2780.542,1927.447 A1350.000,1350.000 0.000 0,0 2844.809,1618.279 Z" style="stroke-width:2.0;stroke:rgb(115,115,115);stroke-linecap:round;fill:rgb(255,0,204);" />
<text x="2906.7" y="1807.7" font-size="39.0px" font-family="CMUBright-Roman" style="text-anchor:start;fill:rgb(0,0,0);" transform="rotate(11.7,2906.7,1807.7)" >MT-ATP6</text>
<path d="M2824.886,1616.526 A1330.000,1330.000 40.000 0,1 2761.571,1921.115 L2780.542,1927.447 A1350.000,1350.000 0.000 0,0 2844.809,1618.279 Z" style="stroke-width:2.0;stroke:rgb(115,115,115);stroke-linecap:round;fill:none;" />
<path d="M2749.965,1954.409 A1330.000,1330.000 40.000 0,1 2583.508,2271.305 L2599.801,2282.903 A1350.000,1350.000 0.000 0,0 2768.762,1961.242 Z" style="stroke-width:2.0;stroke:rgb(115,115,115);stroke-linecap:round;fill:rgb(255,204,204);" />
<text x="2767.8" y="2182.9" font-size="39.0px" font-family="CMUBright-Roman" style="text-anchor:start;fill:rgb(0,0,0);" transform="rotate(27.7,2767.8,2182.9)" >MT-CO3</text>
<path d="M2749.965,1954.409 A1330.000,1330.000 40.000 0,1 2583.508,2271.305 L2599.801,2282.903 A1350.000,1350.000 0.000 0,0 2768.762,1961.242 Z" style="stroke-width:2.0;stroke:rgb(115,115,115);stroke-linecap:round;fill:none;" />
<path d="M2562.681,2299.755 A1330.000,1330.000 40.000 0,1 2460.268,2420.209 L2474.708,2434.047 A1350.000,1350.000 0.000 0,0 2578.661,2311.782 Z" style="stroke-width:2.0;stroke:rgb(115,115,115);stroke-linecap:round;fill:rgb(255,153,0);" />
<text x="2587.3" y="2444.1" font-size="39.0px" font-family="CMUBright-Roman" style="text-anchor:start;fill:rgb(0,0,0);" transform="rotate(40.4,2587.3,2444.1)" >MT-ND3</text>
<path d="M2562.681,2299.755 A1330.000,1330.000 40.000 0,1 2460.268,2420.209 L2474.708,2434.047 A1350.000,1350.000 0.000 0,0 2578.661,2311.782 Z" style="stroke-width:2.0;stroke:rgb(115,115,115);stroke-linecap:round;fill:none;" />
<path d="M2435.538,2445.341 A1330.000,1330.000 40.000 0,1 2334.363,2535.731 L2346.910,2551.306 A1350.000,1350.000 0.000 0,0 2449.606,2459.556 Z" style="stroke-width:2.0;stroke:rgb(115,115,115);stroke-linecap:round;fill:rgb(255,204,0);" />
<text x="2448.5" y="2583.5" font-size="39.0px" font-family="CMUBright-Roman" style="text-anchor:start;fill:rgb(0,0,0);" transform="rotate(48.2,2448.5,2583.5)" >MT-ND4L</text>
<path d="M2435.538,2445.341 A1330.000,1330.000 40.000 0,1 2334.363,2535.731 L2346.910,2551.306 A1350.000,1350.000 0.000 0,0 2449.606,2459.556 Z" style="stroke-width:2.0;stroke:rgb(115,115,115);stroke-linecap:round;fill:none;" />
<path d="M2306.614,2557.484 A1330.000,1330.000 40.000 0,1 1734.012,2809.251 L1737.531,2828.939 A1350.000,1350.000 0.000 0,0 2318.744,2573.386 Z" style="stroke-width:2.0;stroke:rgb(115,115,115);stroke-linecap:round;fill:rgb(255,255,0);" />
<text x="2066.3" y="2824.0" font-size="39.0px" font-family="CMUBright-Roman" style="text-anchor:start;fill:rgb(0,0,0);" transform="rotate(66.3,2066.3,2824.0)" >MT-ND4</text>
<path d="M2306.614,2557.484 A1330.000,1330.000 40.000 0,1 1734.012,2809.251 L1737.531,2828.939 A1350.000,1350.000 0.000 0,0 2318.744,2573.386 Z" style="stroke-width:2.0;stroke:rgb(115,115,115);stroke-linecap:round;fill:none;" />
<path d="M1699.224,2814.994 A1330.000,1330.000 40.000 0,1 892.892,2683.351 L883.763,2701.146 A1350.000,1350.000 0.000 0,0 1702.220,2834.769 Z" style="stroke-width:2.0;stroke:rgb(115,115,115);stroke-linecap:round;fill:rgb(204,255,0);" />
<text x="1282.8" y="2923.5" font-size="39.0px" font-family="CMUBright-Roman" style="text-anchor:end;fill:rgb(0,0,0);" transform="rotate(-80.7,1282.8,2923.5)" >MT-ND5</text>
<path d="M1699.224,2814.994 A1330.000,1330.000 40.000 0,1 892.892,2683.351 L883.763,2701.146 A1350.000,1350.000 0.000 0,0 1702.220,2834.769 Z" style="stroke-width:2.0;stroke:rgb(115,115,115);stroke-linecap:round;fill:none;" />
<path d="M861.737,2666.842 A1330.000,1330.000 40.000 0,1 662.466,2533.169 L649.872,2548.705 A1350.000,1350.000 0.000 0,0 852.139,2684.389 Z" style="stroke-width:2.0;stroke:rgb(115,115,115);stroke-linecap:round;fill:rgb(0,255,0);" />
<text x="710.3" y="2704.2" font-size="39.0px" font-family="CMUBright-Roman" style="text-anchor:end;fill:rgb(0,0,0);" transform="rotate(-56.1,710.3,2704.2)" >MT-ND6</text>
<path d="M861.737,2666.842 A1330.000,1330.000 40.000 0,1 662.466,2533.169 L649.872,2548.705 A1350.000,1350.000 0.000 0,0 852.139,2684.389 Z" style="stroke-width:2.0;stroke:rgb(115,115,115);stroke-linecap:round;fill:none;" />
<path d="M635.373,2510.604 A1330.000,1330.000 40.000 0,1 314.241,2102.392 L296.410,2111.451 A1350.000,1350.000 0.000 0,0 622.371,2525.801 Z" style="stroke-width:2.0;stroke:rgb(115,115,115);stroke-linecap:round;fill:rgb(53,128,0);" />
<text x="377.6" y="2402.1" font-size="39.0px" font-family="CMUBright-Roman" style="text-anchor:end;fill:rgb(0,0,0);" transform="rotate(-38.2,377.6,2402.1)" >MT-CYB</text>
<path d="M635.373,2510.604 A1330.000,1330.000 40.000 0,1 314.241,2102.392 L296.410,2111.451 A1350.000,1350.000 0.000 0,0 622.371,2525.801 Z" style="stroke-width:2.0;stroke:rgb(115,115,115);stroke-linecap:round;fill:none;" />
<path d="M298.690,2070.748 A1330.000,1330.000 40.000 0,1 178.780,1652.567 L158.912,1654.861 A1350.000,1350.000 0.000 0,0 280.625,2079.331 Z" style="stroke-width:2.0;stroke:rgb(115,115,115);stroke-linecap:round;fill:rgb(0,0,204);" />
<text x="119.8" y="1910.8" font-size="39.0px" font-family="CMUBright-Roman" style="text-anchor:end;fill:rgb(0,0,0);" transform="rotate(-16.0,119.8,1910.8)" >MT-RNR1</text>
<path d="M298.690,2070.748 A1330.000,1330.000 40.000 0,1 178.780,1652.567 L158.912,1654.861 A1350.000,1350.000 0.000 0,0 280.625,2079.331 Z" style="stroke-width:2.0;stroke:rgb(115,115,115);stroke-linecap:round;fill:none;" />
<path d="M175.200,1617.490 A1330.000,1330.000 40.000 0,1 301.656,923.050 L283.636,914.374 A1350.000,1350.000 0.000 0,0 155.278,1619.257 Z" style="stroke-width:2.0;stroke:rgb(115,115,115);stroke-linecap:round;fill:rgb(102,153,255);" />
<text x="80.8" y="1256.3" font-size="39.0px" font-family="CMUBright-Roman" style="text-anchor:end;fill:rgb(0,0,0);" transform="rotate(10.3,80.8,1256.3)" >MT-RNR2</text>
<path d="M175.200,1617.490 A1330.000,1330.000 40.000 0,1 301.656,923.050 L283.636,914.374 A1350.000,1350.000 0.000 0,0 155.278,1619.257 Z" style="stroke-width:2.0;stroke:rgb(115,115,115);stroke-linecap:round;fill:none;" />
<path d="M317.371,891.487 A1330.000,1330.000 40.000 0,1 332.400,863.125 L314.842,853.548 A1350.000,1350.000 0.000 0,0 299.587,882.336 Z" style="stroke-width:2.0;stroke:rgb(115,115,115);stroke-linecap:round;fill:rgb(153,204,255);" />
<text x="220.9" y="838.6" font-size="39.0px" font-family="CMUBright-Roman" style="text-anchor:end;fill:rgb(0,0,0);" transform="rotate(27.9,220.9,838.6)" >MT-TF</text>
<path d="M317.371,891.487 A1330.000,1330.000 40.000 0,1 332.400,863.125 L314.842,853.548 A1350.000,1350.000 0.000 0,0 299.587,882.336 Z" style="stroke-width:2.0;stroke:rgb(115,115,115);stroke-linecap:round;fill:none;" />
<path d="M349.693,832.398 A1330.000,1330.000 40.000 0,1 365.659,805.615 L348.601,795.173 A1350.000,1350.000 0.000 0,0 332.395,822.358 Z" style="stroke-width:2.0;stroke:rgb(115,115,115);stroke-linecap:round;fill:rgb(0,255,255);" />
<text x="255.8" y="775.1" font-size="39.0px" font-family="CMUBright-Roman" style="text-anchor:end;fill:rgb(0,0,0);" transform="rotate(30.8,255.8,775.1)" >MT-TV</text>
<path d="M349.693,832.398 A1330.000,1330.000 40.000 0,1 365.659,805.615 L348.601,795.173 A1350.000,1350.000 0.000 0,0 332.395,822.358 Z" style="stroke-width:2.0;stroke:rgb(115,115,115);stroke-linecap:round;fill:none;" />
<path d="M384.464,775.790 A1330.000,1330.000 40.000 0,1 403.302,747.568 L386.811,736.253 A1350.000,1350.000 0.000 0,0 367.690,764.899 Z" style="stroke-width:2.0;stroke:rgb(115,115,115);stroke-linecap:round;fill:rgb(204,255,255);" />
<text x="294.3" y="712.6" font-size="39.0px" font-family="CMUBright-Roman" style="text-anchor:end;fill:rgb(0,0,0);" transform="rotate(33.7,294.3,712.6)" >MT-TL1</text>
<path d="M384.464,775.790 A1330.000,1330.000 40.000 0,1 403.302,747.568 L386.811,736.253 A1350.000,1350.000 0.000 0,0 367.690,764.899 Z" style="stroke-width:2.0;stroke:rgb(115,115,115);stroke-linecap:round;fill:none;" />
<path d="M423.633,718.761 A1330.000,1330.000 40.000 0,1 442.243,693.743 L426.337,681.618 A1350.000,1350.000 0.000 0,0 407.448,707.013 Z" style="stroke-width:2.0;stroke:rgb(115,115,115);stroke-linecap:round;fill:rgb(153,0,204);" />
<text x="336.0" y="652.2" font-size="39.0px" font-family="CMUBright-Roman" style="text-anchor:end;fill:rgb(0,0,0);" transform="rotate(36.6,336.0,652.2)" >MT-TI</text>
<path d="M423.633,718.761 A1330.000,1330.000 40.000 0,1 442.243,693.743 L426.337,681.618 A1350.000,1350.000 0.000 0,0 407.448,707.013 Z" style="stroke-width:2.0;stroke:rgb(115,115,115);stroke-linecap:round;fill:none;" />
<path d="M463.988,665.987 A1330.000,1330.000 40.000 0,1 484.712,640.879 L469.444,627.959 A1350.000,1350.000 0.000 0,0 448.408,653.445 Z" style="stroke-width:2.0;stroke:rgb(115,115,115);stroke-linecap:round;fill:rgb(204,51,255);" />
<text x="379.0" y="596.1" font-size="39.0px" font-family="CMUBright-Roman" style="text-anchor:end;fill:rgb(0,0,0);" transform="rotate(39.5,379.0,596.1)" >MT-TQ</text>
<path d="M463.988,665.987 A1330.000,1330.000 40.000 0,1 484.712,640.879 L469.444,627.959 A1350.000,1350.000 0.000 0,0 448.408,653.445 Z" style="stroke-width:2.0;stroke:rgb(115,115,115);stroke-linecap:round;fill:none;" />
<path d="M507.842,614.267 A1330.000,1330.000 40.000 0,1 528.565,591.587 L513.957,577.926 A1350.000,1350.000 0.000 0,0 492.923,600.948 Z" style="stroke-width:2.0;stroke:rgb(115,115,115);stroke-linecap:round;fill:rgb(204,153,255);" />
<text x="427.2" y="539.4" font-size="39.0px" font-family="CMUBright-Roman" style="text-anchor:end;fill:rgb(0,0,0);" transform="rotate(42.4,427.2,539.4)" >MT-TM</text>
<path d="M507.842,614.267 A1330.000,1330.000 40.000 0,1 528.565,591.587 L513.957,577.926 A1350.000,1350.000 0.000 0,0 492.923,600.948 Z" style="stroke-width:2.0;stroke:rgb(115,115,115);stroke-linecap:round;fill:none;" />
<path d="M552.987,566.155 A1330.000,1330.000 40.000 0,1 574.809,544.530 L560.897,530.162 A1350.000,1350.000 0.000 0,0 538.746,552.112 Z" style="stroke-width:2.0;stroke:rgb(115,115,115);stroke-linecap:round;fill:rgb(102,102,102);" />
<text x="476.2" y="487.4" font-size="39.0px" font-family="CMUBright-Roman" style="text-anchor:end;fill:rgb(0,0,0);" transform="rotate(45.3,476.2,487.4)" >MT-TW</text>
<path d="M552.987,566.155 A1330.000,1330.000 40.000 0,1 574.809,544.530 L560.897,530.162 A1350.000,1350.000 0.000 0,0 538.746,552.112 Z" style="stroke-width:2.0;stroke:rgb(115,115,115);stroke-linecap:round;fill:none;" />
<path d="M600.462,520.341 A1330.000,1330.000 40.000 0,1 623.675,499.523 L610.497,484.478 A1350.000,1350.000 0.000 0,0 586.936,505.609 Z" style="stroke-width:2.0;stroke:rgb(115,115,115);stroke-linecap:round;fill:rgb(153,153,153);" />
<text x="527.8" y="437.7" font-size="39.0px" font-family="CMUBright-Roman" style="text-anchor:end;fill:rgb(0,0,0);" transform="rotate(48.1,527.8,437.7)" >MT-TA</text>
<path d="M600.462,520.341 A1330.000,1330.000 40.000 0,1 623.675,499.523 L610.497,484.478 A1350.000,1350.000 0.000 0,0 586.936,505.609 Z" style="stroke-width:2.0;stroke:rgb(115,115,115);stroke-linecap:round;fill:none;" />
<path d="M650.504,476.644 A1330.000,1330.000 40.000 0,1 676.167,455.874 L663.778,440.173 A1350.000,1350.000 0.000 0,0 637.730,461.256 Z" style="stroke-width:2.0;stroke:rgb(115,115,115);stroke-linecap:round;fill:rgb(204,204,204);" />
<text x="582.8" y="389.9" font-size="39.0px" font-family="CMUBright-Roman" style="text-anchor:end;fill:rgb(0,0,0);" transform="rotate(51.0,582.8,389.9)" >MT-TN</text>
<path d="M650.504,476.644 A1330.000,1330.000 40.000 0,1 676.167,455.874 L663.778,440.173 A1350.000,1350.000 0.000 0,0 637.730,461.256 Z" style="stroke-width:2.0;stroke:rgb(115,115,115);stroke-linecap:round;fill:none;" />
<path d="M704.134,434.403 A1330.000,1330.000 40.000 0,1 728.212,416.836 L716.606,400.548 A1350.000,1350.000 0.000 0,0 692.166,418.379 Z" style="stroke-width:2.0;stroke:rgb(115,115,115);stroke-linecap:round;fill:rgb(153,102,0);" />
<text x="639.2" y="345.6" font-size="39.0px" font-family="CMUBright-Roman" style="text-anchor:end;fill:rgb(0,0,0);" transform="rotate(53.9,639.2,345.6)" >MT-TC</text>
<path d="M704.134,434.403 A1330.000,1330.000 40.000 0,1 728.212,416.836 L716.606,400.548 A1350.000,1350.000 0.000 0,0 692.166,418.379 Z" style="stroke-width:2.0;stroke:rgb(115,115,115);stroke-linecap:round;fill:none;" />
<path d="M757.196,396.758 A1330.000,1330.000 40.000 0,1 782.104,380.390 L771.309,363.554 A1350.000,1350.000 0.000 0,0 746.026,380.168 Z" style="stroke-width:2.0;stroke:rgb(115,115,115);stroke-linecap:round;fill:rgb(102,102,0);" />
<text x="697.1" y="304.6" font-size="39.0px" font-family="CMUBright-Roman" style="text-anchor:end;fill:rgb(0,0,0);" transform="rotate(56.7,697.1,304.6)" >MT-TY</text>
<path d="M757.196,396.758 A1330.000,1330.000 40.000 0,1 782.104,380.390 L771.309,363.554 A1350.000,1350.000 0.000 0,0 746.026,380.168 Z" style="stroke-width:2.0;stroke:rgb(115,115,115);stroke-linecap:round;fill:none;" />
<path d="M812.036,361.754 A1330.000,1330.000 40.000 0,1 838.908,345.939 L828.967,328.584 A1350.000,1350.000 0.000 0,0 801.690,344.637 Z" style="stroke-width:2.0;stroke:rgb(115,115,115);stroke-linecap:round;fill:rgb(153,153,30);" />
<text x="756.7" y="266.6" font-size="39.0px" font-family="CMUBright-Roman" style="text-anchor:end;fill:rgb(0,0,0);" transform="rotate(59.5,756.7,266.6)" >MT-TS1</text>
<path d="M812.036,361.754 A1330.000,1330.000 40.000 0,1 838.908,345.939 L828.967,328.584 A1350.000,1350.000 0.000 0,0 801.690,344.637 Z" style="stroke-width:2.0;stroke:rgb(115,115,115);stroke-linecap:round;fill:none;" />
<path d="M869.732,328.820 A1330.000,1330.000 40.000 0,1 896.952,314.575 L887.884,296.749 A1350.000,1350.000 0.000 0,0 860.255,311.208 Z" style="stroke-width:2.0;stroke:rgb(115,115,115);stroke-linecap:round;fill:rgb(204,0,0);" />
<text x="819.5" y="230.9" font-size="39.0px" font-family="CMUBright-Roman" style="text-anchor:end;fill:rgb(0,0,0);" transform="rotate(62.4,819.5,230.9)" >MT-TD</text>
<path d="M869.732,328.820 A1330.000,1330.000 40.000 0,1 896.952,314.575 L887.884,296.749 A1350.000,1350.000 0.000 0,0 860.255,311.208 Z" style="stroke-width:2.0;stroke:rgb(115,115,115);stroke-linecap:round;fill:none;" />
<path d="M928.588,299.005 A1330.000,1330.000 40.000 0,1 957.317,285.753 L949.157,267.494 A1350.000,1350.000 0.000 0,0 919.995,280.945 Z" style="stroke-width:2.0;stroke:rgb(115,115,115);stroke-linecap:round;fill:rgb(255,0,0);" />
<text x="883.7" y="198.5" font-size="39.0px" font-family="CMUBright-Roman" style="text-anchor:end;fill:rgb(0,0,0);" transform="rotate(65.2,883.7,198.5)" >MT-TK</text>
<path d="M928.588,299.005 A1330.000,1330.000 40.000 0,1 957.317,285.753 L949.157,267.494 A1350.000,1350.000 0.000 0,0 919.995,280.945 Z" style="stroke-width:2.0;stroke:rgb(115,115,115);stroke-linecap:round;fill:none;" />
<path d="M989.696,271.794 A1330.000,1330.000 40.000 0,1 1018.201,260.335 L1010.955,241.693 A1350.000,1350.000 0.000 0,0 982.022,253.325 Z" style="stroke-width:2.0;stroke:rgb(115,115,115);stroke-linecap:round;fill:rgb(255,0,204);" />
<text x="949.0" y="169.6" font-size="39.0px" font-family="CMUBright-Roman" style="text-anchor:end;fill:rgb(0,0,0);" transform="rotate(68.1,949.0,169.6)" >MT-TG</text>
<path d="M989.696,271.794 A1330.000,1330.000 40.000 0,1 1018.201,260.335 L1010.955,241.693 A1350.000,1350.000 0.000 0,0 982.022,253.325 Z" style="stroke-width:2.0;stroke:rgb(115,115,115);stroke-linecap:round;fill:none;" />
<path d="M1051.231,247.999 A1330.000,1330.000 40.000 0,1 1078.964,238.402 L1072.633,219.431 A1350.000,1350.000 0.000 0,0 1044.483,229.172 Z" style="stroke-width:2.0;stroke:rgb(115,115,115);stroke-linecap:round;fill:rgb(255,204,204);" />
<text x="1015.4" y="144.0" font-size="39.0px" font-family="CMUBright-Roman" style="text-anchor:end;fill:rgb(0,0,0);" transform="rotate(70.9,1015.4,144.0)" >MT-TR</text>
<path d="M1051.231,247.999 A1330.000,1330.000 40.000 0,1 1078.964,238.402 L1072.633,219.431 A1350.000,1350.000 0.000 0,0 1044.483,229.172 Z" style="stroke-width:2.0;stroke:rgb(115,115,115);stroke-linecap:round;fill:none;" />
<path d="M1112.555,227.685 A1330.000,1330.000 40.000 0,1 1142.488,218.952 L1137.111,199.688 A1350.000,1350.000 0.000 0,0 1106.729,208.552 Z" style="stroke-width:2.0;stroke:rgb(115,115,115);stroke-linecap:round;fill:rgb(255,153,0);" />
<text x="1082.8" y="121.8" font-size="39.0px" font-family="CMUBright-Roman" style="text-anchor:end;fill:rgb(0,0,0);" transform="rotate(73.7,1082.8,121.8)" >MT-TH</text>
<path d="M1112.555,227.685 A1330.000,1330.000 40.000 0,1 1142.488,218.952 L1137.111,199.688 A1350.000,1350.000 0.000 0,0 1106.729,208.552 Z" style="stroke-width:2.0;stroke:rgb(115,115,115);stroke-linecap:round;fill:none;" />
<path d="M1176.571,209.925 A1330.000,1330.000 40.000 0,1 1202.432,203.716 L1197.957,184.223 A1350.000,1350.000 0.000 0,0 1171.708,190.525 Z" style="stroke-width:2.0;stroke:rgb(115,115,115);stroke-linecap:round;fill:rgb(255,204,0);" />
<text x="1149.2" y="103.4" font-size="39.0px" font-family="CMUBright-Roman" style="text-anchor:end;fill:rgb(0,0,0);" transform="rotate(76.5,1149.2,103.4)" >MT-TS2</text>
<path d="M1176.571,209.925 A1330.000,1330.000 40.000 0,1 1202.432,203.716 L1197.957,184.223 A1350.000,1350.000 0.000 0,0 1171.708,190.525 Z" style="stroke-width:2.0;stroke:rgb(115,115,115);stroke-linecap:round;fill:none;" />
<path d="M1236.899,196.283 A1330.000,1330.000 40.000 0,1 1268.436,190.314 L1264.954,170.619 A1350.000,1350.000 0.000 0,0 1232.942,176.678 Z" style="stroke-width:2.0;stroke:rgb(115,115,115);stroke-linecap:round;fill:rgb(255,255,0);" />
<text x="1218.0" y="87.9" font-size="39.0px" font-family="CMUBright-Roman" style="text-anchor:end;fill:rgb(0,0,0);" transform="rotate(79.3,1218.0,87.9)" >MT-TL2</text>
<path d="M1236.899,196.283 A1330.000,1330.000 40.000 0,1 1268.436,190.314 L1264.954,170.619 A1350.000,1350.000 0.000 0,0 1232.942,176.678 Z" style="stroke-width:2.0;stroke:rgb(115,115,115);stroke-linecap:round;fill:none;" />
<path d="M1303.235,184.636 A1330.000,1330.000 40.000 0,1 1334.124,180.384 L1331.630,160.541 A1350.000,1350.000 0.000 0,0 1300.276,164.856 Z" style="stroke-width:2.0;stroke:rgb(115,115,115);stroke-linecap:round;fill:rgb(204,255,0);" />
<text x="1289.3" y="75.5" font-size="39.0px" font-family="CMUBright-Roman" style="text-anchor:end;fill:rgb(0,0,0);" transform="rotate(82.2,1289.3,75.5)" >MT-TE</text>
<path d="M1303.235,184.636 A1330.000,1330.000 40.000 0,1 1334.124,180.384 L1331.630,160.541 A1350.000,1350.000 0.000 0,0 1300.276,164.856 Z" style="stroke-width:2.0;stroke:rgb(115,115,115);stroke-linecap:round;fill:none;" />
<path d="M1369.163,176.451 A1330.000,1330.000 40.000 0,1 1398.855,173.852 L1397.334,153.909 A1350.000,1350.000 0.000 0,0 1367.196,156.548 Z" style="stroke-width:2.0;stroke:rgb(115,115,115);stroke-linecap:round;fill:rgb(0,255,0);" />
<text x="1360.0" y="66.8" font-size="39.0px" font-family="CMUBright-Roman" style="text-anchor:end;fill:rgb(0,0,0);" transform="rotate(85.0,1360.0,66.8)" >MT-TT</text>
<path d="M1369.163,176.451 A1330.000,1330.000 40.000 0,1 1398.855,173.852 L1397.334,153.909 A1350.000,1350.000 0.000 0,0 1367.196,156.548 Z" style="stroke-width:2.0;stroke:rgb(115,115,115);stroke-linecap:round;fill:none;" />
<path d="M1434.044,171.636 A1330.000,1330.000 40.000 0,1 1464.744,170.467 L1464.214,150.474 A1350.000,1350.000 0.000 0,0 1433.052,151.661 Z" style="stroke-width:2.0;stroke:rgb(115,115,115);stroke-linecap:round;fill:rgb(53,128,0);" />
<text x="1430.7" y="61.7" font-size="39.0px" font-family="CMUBright-Roman" style="text-anchor:end;fill:rgb(0,0,0);" transform="rotate(87.8,1430.7,61.7)" >MT-TP</text>
<path d="M1434.044,171.636 A1330.000,1330.000 40.000 0,1 1464.744,170.467 L1464.214,150.474 A1350.000,1350.000 0.000 0,0 1433.052,151.661 Z" style="stroke-width:2.0;stroke:rgb(115,115,115);stroke-linecap:round;fill:none;" />
</g>
<defs>
<pattern id="hline-sparse" width="10" height="10" patternTransform="rotate(0 0 0)" patternUnits="userSpaceOnUse"><line x1="0" y1="0" x2="10" y2="0" style="stroke:black;stroke-width:2" /></pattern>
<pattern id="checker" width="10" height="10" patternTransform="rotate(45 0 0)" patternUnits="userSpaceOnUse"><line x1="0" y1="0" x2="10" y2="0" style="stroke:black;stroke-width:2" /><line x1="0" y1="0" x2="0" y2="10" style="stroke:black;stroke-width:2" /></pattern>
<pattern id="checker" width="10" height="10" patternTransform="rotate(45 0 0)" patternUnits="userSpaceOnUse"><line x1="0" y1="0" x2="10" y2="0" style="stroke:black;stroke-width:5" /><line x1="0" y1="0" x2="0" y2="10" style="stroke:black;stroke-width:4" /></pattern>
<pattern id="hline" width="10" height="10" patternTransform="rotate(0 0 0)" patternUnits="userSpaceOnUse"><line x1="0" y1="0" x2="10" y2="0" style="stroke:black;stroke-width:5" /></pattern>
<pattern id="vline-sparse" width="10" height="10" patternTransform="rotate(0 0 0)" patternUnits="userSpaceOnUse"><line x1="0" y1="0" x2="0" y2="10" style="stroke:black;stroke-width:2" /></pattern>
<pattern id="vline" width="10" height="10" patternTransform="rotate(0 0 0)" patternUnits="userSpaceOnUse"><line x1="0" y1="0" x2="0" y2="10" style="stroke:black;stroke-width:5" /></pattern>
</defs>
</svg>
