<?xml version="1.0" encoding="utf-8" standalone="no"?>
<!DOCTYPE svg PUBLIC "-//W3C//DTD SVG 1.1//EN" "http://www.w3.org/Graphics/SVG/1.1/DTD/svg11.dtd">
<svg width="3000px" height="3000px" version="1.1" xmlns="http://www.w3.org/2000/svg" xmlns:xlink="http://www.w3.org/1999/xlink">
<g id="bg">
<rect x="0" y="0" width="3000px" height="3000px" style="fill:rgb(255,255,255);"/>
</g>
<g id="ideograms">
<path d="M1500.000,170.000 A1330.000,1330.000 40.000 1,1 1499.768,170.000 L1499.764,150.000 A1350.000,1350.000 0.000 1,0 1500.000,150.000 Z" style="stroke-width:2.0;stroke:rgb(115,115,115);stroke-linecap:round;fill:rgb(153,102,0);" />
<path d="M1798.368,203.899 A1330.000,1330.000 40.000 0,1 1833.828,212.577 L1838.848,193.217 A1350.000,1350.000 0.000 0,0 1802.854,184.409 Z" style="stroke-linecap:round;fill:rgb(153,102,0);" />
<path d="M1834.333,212.708 A1330.000,1330.000 40.000 0,1 2281.206,423.609 L2292.953,407.423 A1350.000,1350.000 0.000 0,0 1839.360,193.350 Z" style="stroke-linecap:round;fill:rgb(102,102,0);" />
<path d="M2281.628,423.915 A1330.000,1330.000 40.000 0,1 2310.041,445.138 L2322.222,429.275 A1350.000,1350.000 0.000 0,0 2293.382,407.734 Z" style="stroke-linecap:round;fill:rgb(153,153,30);" />
<path d="M2310.454,445.456 A1330.000,1330.000 40.000 0,1 2768.780,1101.129 L2787.859,1095.131 A1350.000,1350.000 0.000 0,0 2322.641,429.598 Z" style="stroke-linecap:round;fill:rgb(204,0,0);" />
<path d="M2768.936,1101.626 A1330.000,1330.000 40.000 0,1 2779.960,1138.611 L2799.208,1133.176 A1350.000,1350.000 0.000 0,0 2788.018,1095.636 Z" style="stroke-linecap:round;fill:rgb(255,0,0);" />
<path d="M2780.384,1140.117 A1330.000,1330.000 40.000 0,1 2823.291,1633.420 L2843.190,1635.426 A1350.000,1350.000 0.000 0,0 2799.638,1134.705 Z" style="stroke-linecap:round;fill:rgb(255,0,204);" />
<path d="M2823.239,1633.939 A1330.000,1330.000 40.000 0,1 2819.197,1669.171 L2839.035,1671.715 A1350.000,1350.000 0.000 0,0 2843.137,1635.953 Z" style="stroke-linecap:round;fill:rgb(255,204,204);" />
<path d="M2819.329,1668.137 A1330.000,1330.000 40.000 0,1 2814.137,1704.799 L2833.899,1707.879 A1350.000,1350.000 0.000 0,0 2839.169,1670.665 Z" style="stroke-linecap:round;fill:rgb(255,153,0);" />
<path d="M2813.976,1705.830 A1330.000,1330.000 40.000 0,1 2808.116,1740.277 L2827.787,1743.890 A1350.000,1350.000 0.000 0,0 2833.736,1708.925 Z" style="stroke-linecap:round;fill:rgb(255,204,0);" />
<path d="M2808.022,1740.790 A1330.000,1330.000 40.000 0,1 2604.957,2240.249 L2621.573,2251.381 A1350.000,1350.000 0.000 0,0 2827.691,1744.411 Z" style="stroke-linecap:round;fill:rgb(255,255,0);" />
<path d="M2604.667,2240.683 A1330.000,1330.000 40.000 0,1 2584.828,2269.447 L2601.141,2281.017 A1350.000,1350.000 0.000 0,0 2621.279,2251.821 Z" style="stroke-linecap:round;fill:rgb(204,255,0);" />
<path d="M2582.409,2272.846 A1330.000,1330.000 40.000 0,1 2561.418,2301.431 L2577.380,2313.482 A1350.000,1350.000 0.000 0,0 2598.686,2284.468 Z" style="stroke-linecap:round;fill:rgb(0,255,0);" />
<path d="M2560.790,2302.263 A1330.000,1330.000 40.000 0,1 2537.719,2331.889 L2553.324,2344.399 A1350.000,1350.000 0.000 0,0 2576.741,2314.327 Z" style="stroke-linecap:round;fill:rgb(53,128,0);" />
<path d="M2527.199,2344.845 A1330.000,1330.000 40.000 0,1 2505.333,2370.750 L2520.451,2383.844 A1350.000,1350.000 0.000 0,0 2542.645,2357.549 Z" style="stroke-linecap:round;fill:rgb(0,0,204);" />
<path d="M2505.333,2370.750 A1330.000,1330.000 40.000 0,1 2482.815,2396.089 L2497.594,2409.564 A1350.000,1350.000 0.000 0,0 2520.451,2383.844 Z" style="stroke-linecap:round;fill:rgb(102,153,255);" />
<path d="M2478.234,2401.087 A1330.000,1330.000 40.000 0,1 1793.028,2797.318 L1797.435,2816.827 A1350.000,1350.000 0.000 0,0 2492.944,2414.638 Z" style="stroke-linecap:round;fill:rgb(153,204,255);" />
<path d="M1792.520,2797.433 A1330.000,1330.000 40.000 0,1 1757.823,2804.771 L1761.701,2824.391 A1350.000,1350.000 0.000 0,0 1796.918,2816.943 Z" style="stroke-linecap:round;fill:rgb(0,255,255);" />
<path d="M1755.777,2805.174 A1330.000,1330.000 40.000 0,1 1721.401,2811.443 L1724.731,2831.163 A1350.000,1350.000 0.000 0,0 1759.623,2824.800 Z" style="stroke-linecap:round;fill:rgb(204,255,255);" />
<path d="M1720.887,2811.529 A1330.000,1330.000 40.000 0,1 1365.932,2823.225 L1363.915,2843.124 A1350.000,1350.000 0.000 0,0 1724.209,2831.251 Z" style="stroke-linecap:round;fill:rgb(153,0,204);" />
<path d="M1352.448,2821.790 A1330.000,1330.000 40.000 0,1 1316.742,2817.314 L1313.986,2837.123 A1350.000,1350.000 0.000 0,0 1350.229,2841.666 Z" style="stroke-linecap:round;fill:rgb(204,51,255);" />
<path d="M1315.709,2817.170 A1330.000,1330.000 40.000 0,1 1210.025,2798.004 L1205.664,2817.523 A1350.000,1350.000 0.000 0,0 1312.938,2836.977 Z" style="stroke-linecap:round;fill:rgb(204,153,255);" />
<path d="M1232.973,2802.919 A1330.000,1330.000 40.000 0,1 899.087,2686.509 L890.051,2704.351 A1350.000,1350.000 0.000 0,0 1228.958,2822.511 Z" style="stroke-linecap:round;fill:rgb(102,102,102);" />
<path d="M899.087,2686.509 A1330.000,1330.000 40.000 0,1 568.580,2449.398 L554.574,2463.675 A1350.000,1350.000 0.000 0,0 890.051,2704.351 Z" style="stroke-linecap:round;fill:rgb(153,153,153);" />
<path d="M568.208,2449.033 A1330.000,1330.000 40.000 0,1 543.598,2424.227 L529.216,2438.125 A1350.000,1350.000 0.000 0,0 554.196,2463.304 Z" style="stroke-linecap:round;fill:rgb(204,204,204);" />
<path d="M543.236,2423.852 A1330.000,1330.000 40.000 0,1 427.374,2286.367 L411.244,2298.192 A1350.000,1350.000 0.000 0,0 528.848,2437.744 Z" style="stroke-linecap:round;fill:rgb(153,102,0);" />
<path d="M427.066,2285.947 A1330.000,1330.000 40.000 0,1 407.681,2258.775 L391.255,2270.185 A1350.000,1350.000 0.000 0,0 410.931,2297.765 Z" style="stroke-linecap:round;fill:rgb(102,102,0);" />
<path d="M407.384,2258.347 A1330.000,1330.000 40.000 0,1 326.910,2126.706 L309.270,2136.130 A1350.000,1350.000 0.000 0,0 390.953,2269.750 Z" style="stroke-linecap:round;fill:rgb(153,153,30);" />
<path d="M328.388,2129.464 A1330.000,1330.000 40.000 0,1 171.466,1437.569 L151.488,1436.630 A1350.000,1350.000 0.000 0,0 310.770,2138.930 Z" style="stroke-linecap:round;fill:rgb(204,0,0);" />
<path d="M171.491,1437.048 A1330.000,1330.000 40.000 0,1 173.641,1401.649 L153.696,1400.170 A1350.000,1350.000 0.000 0,0 151.513,1436.101 Z" style="stroke-linecap:round;fill:rgb(255,0,0);" />
<path d="M173.680,1401.129 A1330.000,1330.000 40.000 0,1 176.272,1370.992 L156.366,1369.052 A1350.000,1350.000 0.000 0,0 153.735,1399.642 Z" style="stroke-linecap:round;fill:rgb(255,0,204);" />
<path d="M176.322,1370.473 A1330.000,1330.000 40.000 0,1 180.376,1334.192 L160.532,1331.698 A1350.000,1350.000 0.000 0,0 156.417,1368.525 Z" style="stroke-linecap:round;fill:rgb(255,204,204);" />
<path d="M180.441,1333.674 A1330.000,1330.000 40.000 0,1 607.869,513.592 L594.453,498.758 A1350.000,1350.000 0.000 0,0 160.598,1331.173 Z" style="stroke-linecap:round;fill:rgb(255,153,0);" />
<path d="M608.256,513.242 A1330.000,1330.000 40.000 0,1 828.349,352.052 L818.249,334.789 A1350.000,1350.000 0.000 0,0 594.846,498.403 Z" style="stroke-linecap:round;fill:rgb(255,204,0);" />
<path d="M828.799,351.789 A1330.000,1330.000 40.000 0,1 859.652,334.301 L850.022,316.772 A1350.000,1350.000 0.000 0,0 818.706,334.522 Z" style="stroke-linecap:round;fill:rgb(255,255,0);" />
<path d="M861.938,333.048 A1330.000,1330.000 40.000 0,1 1429.104,171.891 L1428.038,151.919 A1350.000,1350.000 0.000 0,0 852.343,315.500 Z" style="stroke-linecap:round;fill:rgb(204,255,0);" />
<path d="M1429.625,171.863 A1330.000,1330.000 40.000 0,1 1463.497,170.501 L1462.948,150.509 A1350.000,1350.000 0.000 0,0 1428.567,151.891 Z" style="stroke-linecap:round;fill:rgb(0,255,0);" />
<path d="M1465.061,170.459 A1330.000,1330.000 40.000 0,1 1500.000,170.000 L1500.000,150.000 A1350.000,1350.000 0.000 0,0 1464.535,150.466 Z" style="stroke-linecap:round;fill:rgb(53,128,0);" />
<text x="1485.5" y="2939.9" font-size="39.0px" font-family="CMUBright-Roman" style="text-anchor:start;fill:rgb(0,0,0);" transform="rotate(90.0,1485.5,2939.9)" >MT</text>
<line x1='1500.0' y1='150.0' x2='1500.0' y2='135.0' style="stroke-width:2.0;stroke:rgb(0,0,0);stroke-linecap:round;fill:none;" />
<text x="1510.0" y="125.0" font-size="26.0px" font-family="CMUBright-Roman" style="text-anchor:start;fill:rgb(0,0,0);" transform="rotate(270.0,1510.0,125.0)" >0</text>
<path d="M1500.000,170.000 A1330.000,1330.000 40.000 1,1 1499.768,170.000 L1499.764,150.000 A1350.000,1350.000 0.000 1,0 1500.000,150.000 Z" style="stroke-width:2.0;stroke:rgb(115,115,115);stroke-linecap:round;fill:none;" />
</g>
<defs>
<pattern id="hline-sparse" width="10" height="10" patternTransform="rotate(0 0 0)" patternUnits="userSpaceOnUse"><line x1="0" y1="0" x2="10" y2="0" style="stroke:black;stroke-width:2" /></pattern>
<pattern id="checker" width="10" height="10" patternTransform="rotate(45 0 0)" patternUnits="userSpaceOnUse"><line x1="0" y1="0" x2="10" y2="0" style="stroke:black;stroke-width:2" /><line x1="0" y1="0" x2="0" y2="10" style="stroke:black;stroke-width:2" /></pattern>
<pattern id="checker" width="10" height="10" patternTransform="rotate(45 0 0)" patternUnits="userSpaceOnUse"><line x1="0" y1="0" x2="10" y2="0" style="stroke:black;stroke-width:5" /><line x1="0" y1="0" x2="0" y2="10" style="stroke:black;stroke-width:4" /></pattern>
<pattern id="hline" width="10" height="10" patternTransform="rotate(0 0 0)" patternUnits="userSpaceOnUse"><line x1="0" y1="0" x2="10" y2="0" style="stroke:black;stroke-width:5" /></pattern>
<pattern id="vline-sparse" width="10" height="10" patternTransform="rotate(0 0 0)" patternUnits="userSpaceOnUse"><line x1="0" y1="0" x2="0" y2="10" style="stroke:black;stroke-width:2" /></pattern>
<pattern id="vline" width="10" height="10" patternTransform="rotate(0 0 0)" patternUnits="userSpaceOnUse"><line x1="0" y1="0" x2="0" y2="10" style="stroke:black;stroke-width:5" /></pattern>
</defs>
</svg>
