<?xml version="1.0" encoding="utf-8" standalone="no"?>
<!DOCTYPE svg PUBLIC "-//W3C//DTD SVG 1.1//EN" "http://www.w3.org/Graphics/SVG/1.1/DTD/svg11.dtd">
<svg width="3000px" height="3000px" version="1.1" xmlns="http://www.w3.org/2000/svg" xmlns:xlink="http://www.w3.org/1999/xlink">
<g id="bg">
<rect x="0" y="0" width="3000px" height="3000px" style="fill:rgb(255,255,255);"/>
</g>
<g id="ideograms">
<path d="M1500.000,170.000 A1330.000,1330.000 40.000 0,1 1538.031,170.544 L1538.603,150.552 A1350.000,1350.000 0.000 0,0 1500.000,150.000 Z" style="stroke-width:2.0;stroke:rgb(115,115,115);stroke-linecap:round;fill:rgb(153,102,0);" />
<text x="1535.1" y="60.4" font-size="39.0px" font-family="CMUBright-Roman" style="text-anchor:start;fill:rgb(0,0,0);" transform="rotate(270.8,1535.1,60.4)" >TF</text>
<path d="M1500.000,170.000 A1330.000,1330.000 40.000 0,1 1538.031,170.544 L1538.603,150.552 A1350.000,1350.000 0.000 0,0 1500.000,150.000 Z" style="stroke-width:2.0;stroke:rgb(115,115,115);stroke-linecap:round;fill:none;" />
<path d="M1538.031,170.544 A1330.000,1330.000 40.000 0,1 2039.834,284.484 L2047.952,266.206 A1350.000,1350.000 0.000 0,0 1538.603,150.552 Z" style="stroke-width:2.0;stroke:rgb(115,115,115);stroke-linecap:round;fill:rgb(102,102,0);" />
<text x="1833.0" y="99.0" font-size="39.0px" font-family="CMUBright-Roman" style="text-anchor:start;fill:rgb(0,0,0);" transform="rotate(282.8,1833.0,99.0)" >RNR1</text>
<path d="M1538.031,170.544 A1330.000,1330.000 40.000 0,1 2039.834,284.484 L2047.952,266.206 A1350.000,1350.000 0.000 0,0 1538.603,150.552 Z" style="stroke-width:2.0;stroke:rgb(115,115,115);stroke-linecap:round;fill:none;" />
<path d="M2039.834,284.484 A1330.000,1330.000 40.000 0,1 2073.391,299.949 L2082.013,281.903 A1350.000,1350.000 0.000 0,0 2047.952,266.206 Z" style="stroke-width:2.0;stroke:rgb(115,115,115);stroke-linecap:round;fill:rgb(153,153,30);" />
<text x="2115.8" y="198.3" font-size="39.0px" font-family="CMUBright-Roman" style="text-anchor:start;fill:rgb(0,0,0);" transform="rotate(294.7,2115.8,198.3)" >TV</text>
<path d="M2039.834,284.484 A1330.000,1330.000 40.000 0,1 2073.391,299.949 L2082.013,281.903 A1350.000,1350.000 0.000 0,0 2047.952,266.206 Z" style="stroke-width:2.0;stroke:rgb(115,115,115);stroke-linecap:round;fill:none;" />
<path d="M2073.391,299.949 A1330.000,1330.000 40.000 0,1 2674.421,875.792 L2692.081,866.405 A1350.000,1350.000 0.000 0,0 2082.013,281.903 Z" style="stroke-width:2.0;stroke:rgb(115,115,115);stroke-linecap:round;fill:rgb(204,0,0);" />
<text x="2506.6" y="470.3" font-size="39.0px" font-family="CMUBright-Roman" style="text-anchor:start;fill:rgb(0,0,0);" transform="rotate(313.8,2506.6,470.3)" >RNR2</text>
<path d="M2073.391,299.949 A1330.000,1330.000 40.000 0,1 2674.421,875.792 L2692.081,866.405 A1350.000,1350.000 0.000 0,0 2082.013,281.903 Z" style="stroke-width:2.0;stroke:rgb(115,115,115);stroke-linecap:round;fill:none;" />
<path d="M2674.421,875.792 A1330.000,1330.000 40.000 0,1 2692.753,911.578 L2710.689,902.730 A1350.000,1350.000 0.000 0,0 2692.081,866.405 Z" style="stroke-width:2.0;stroke:rgb(115,115,115);stroke-linecap:round;fill:rgb(255,0,0);" />
<text x="2788.2" y="856.4" font-size="39.0px" font-family="CMUBright-Roman" style="text-anchor:start;fill:rgb(0,0,0);" transform="rotate(332.9,2788.2,856.4)" >TL1</text>
<path d="M2674.421,875.792 A1330.000,1330.000 40.000 0,1 2692.753,911.578 L2710.689,902.730 A1350.000,1350.000 0.000 0,0 2692.081,866.405 Z" style="stroke-width:2.0;stroke:rgb(115,115,115);stroke-linecap:round;fill:none;" />
<path d="M2692.753,911.578 A1330.000,1330.000 40.000 0,1 2826.915,1409.462 L2846.868,1408.100 A1350.000,1350.000 0.000 0,0 2710.689,902.730 Z" style="stroke-width:2.0;stroke:rgb(115,115,115);stroke-linecap:round;fill:rgb(255,0,204);" />
<text x="2894.1" y="1139.4" font-size="39.0px" font-family="CMUBright-Roman" style="text-anchor:start;fill:rgb(0,0,0);" transform="rotate(344.9,2894.1,1139.4)" >ND1</text>
<path d="M2692.753,911.578 A1330.000,1330.000 40.000 0,1 2826.915,1409.462 L2846.868,1408.100 A1350.000,1350.000 0.000 0,0 2710.689,902.730 Z" style="stroke-width:2.0;stroke:rgb(115,115,115);stroke-linecap:round;fill:none;" />
<path d="M2826.915,1409.462 A1330.000,1330.000 40.000 0,1 2828.918,1446.356 L2848.901,1445.549 A1350.000,1350.000 0.000 0,0 2846.868,1408.100 Z" style="stroke-width:2.0;stroke:rgb(115,115,115);stroke-linecap:round;fill:rgb(255,204,204);" />
<text x="2938.6" y="1436.4" font-size="39.0px" font-family="CMUBright-Roman" style="text-anchor:start;fill:rgb(0,0,0);" transform="rotate(356.9,2938.6,1436.4)" >TI</text>
<path d="M2826.915,1409.462 A1330.000,1330.000 40.000 0,1 2828.918,1446.356 L2848.901,1445.549 A1350.000,1350.000 0.000 0,0 2846.868,1408.100 Z" style="stroke-width:2.0;stroke:rgb(115,115,115);stroke-linecap:round;fill:none;" />
<path d="M2828.918,1446.356 A1330.000,1330.000 40.000 0,1 2829.915,1484.922 L2849.913,1484.695 A1350.000,1350.000 0.000 0,0 2848.901,1445.549 Z" style="stroke-width:2.0;stroke:rgb(115,115,115);stroke-linecap:round;fill:rgb(255,153,0);" />
<text x="2939.9" y="1479.3" font-size="39.0px" font-family="CMUBright-Roman" style="text-anchor:start;fill:rgb(0,0,0);" transform="rotate(358.5,2939.9,1479.3)" >TQ</text>
<path d="M2828.918,1446.356 A1330.000,1330.000 40.000 0,1 2829.915,1484.922 L2849.913,1484.695 A1350.000,1350.000 0.000 0,0 2848.901,1445.549 Z" style="stroke-width:2.0;stroke:rgb(115,115,115);stroke-linecap:round;fill:none;" />
<path d="M2829.915,1484.922 A1330.000,1330.000 40.000 0,1 2829.829,1521.327 L2849.826,1521.647 A1350.000,1350.000 0.000 0,0 2849.913,1484.695 Z" style="stroke-width:2.0;stroke:rgb(115,115,115);stroke-linecap:round;fill:rgb(255,204,0);" />
<text x="2939.9" y="1517.9" font-size="39.0px" font-family="CMUBright-Roman" style="text-anchor:start;fill:rgb(0,0,0);" transform="rotate(0.1,2939.9,1517.9)" >TM</text>
<path d="M2829.915,1484.922 A1330.000,1330.000 40.000 0,1 2829.829,1521.327 L2849.826,1521.647 A1350.000,1350.000 0.000 0,0 2849.913,1484.695 Z" style="stroke-width:2.0;stroke:rgb(115,115,115);stroke-linecap:round;fill:none;" />
<path d="M2829.829,1521.327 A1330.000,1330.000 40.000 0,1 2702.558,2068.115 L2720.642,2076.658 A1350.000,1350.000 0.000 0,0 2849.826,1521.647 Z" style="stroke-width:2.0;stroke:rgb(115,115,115);stroke-linecap:round;fill:rgb(255,255,0);" />
<text x="2899.2" y="1840.6" font-size="39.0px" font-family="CMUBright-Roman" style="text-anchor:start;fill:rgb(0,0,0);" transform="rotate(13.1,2899.2,1840.6)" >ND2</text>
<path d="M2829.829,1521.327 A1330.000,1330.000 40.000 0,1 2702.558,2068.115 L2720.642,2076.658 A1350.000,1350.000 0.000 0,0 2849.826,1521.647 Z" style="stroke-width:2.0;stroke:rgb(115,115,115);stroke-linecap:round;fill:none;" />
<path d="M2702.558,2068.115 A1330.000,1330.000 40.000 0,1 2686.558,2100.816 L2704.401,2109.851 A1350.000,1350.000 0.000 0,0 2720.642,2076.658 Z" style="stroke-width:2.0;stroke:rgb(115,115,115);stroke-linecap:round;fill:rgb(204,255,0);" />
<text x="2787.0" y="2145.9" font-size="39.0px" font-family="CMUBright-Roman" style="text-anchor:start;fill:rgb(0,0,0);" transform="rotate(26.1,2787.0,2145.9)" >TW</text>
<path d="M2702.558,2068.115 A1330.000,1330.000 40.000 0,1 2686.558,2100.816 L2704.401,2109.851 A1350.000,1350.000 0.000 0,0 2720.642,2076.658 Z" style="stroke-width:2.0;stroke:rgb(115,115,115);stroke-linecap:round;fill:none;" />
<path d="M2686.558,2100.816 A1330.000,1330.000 40.000 0,1 2669.411,2133.544 L2686.996,2143.071 A1350.000,1350.000 0.000 0,0 2704.401,2109.851 Z" style="stroke-width:2.0;stroke:rgb(115,115,115);stroke-linecap:round;fill:rgb(0,255,0);" />
<text x="2768.7" y="2181.1" font-size="39.0px" font-family="CMUBright-Roman" style="text-anchor:start;fill:rgb(0,0,0);" transform="rotate(27.7,2768.7,2181.1)" >TA</text>
<path d="M2686.558,2100.816 A1330.000,1330.000 40.000 0,1 2669.411,2133.544 L2686.996,2143.071 A1350.000,1350.000 0.000 0,0 2704.401,2109.851 Z" style="stroke-width:2.0;stroke:rgb(115,115,115);stroke-linecap:round;fill:none;" />
<path d="M2669.411,2133.544 A1330.000,1330.000 40.000 0,1 2650.271,2167.665 L2667.568,2177.705 A1350.000,1350.000 0.000 0,0 2686.996,2143.071 Z" style="stroke-width:2.0;stroke:rgb(115,115,115);stroke-linecap:round;fill:rgb(53,128,0);" />
<text x="2748.7" y="2217.1" font-size="39.0px" font-family="CMUBright-Roman" style="text-anchor:start;fill:rgb(0,0,0);" transform="rotate(29.3,2748.7,2217.1)" >TN</text>
<path d="M2669.411,2133.544 A1330.000,1330.000 40.000 0,1 2650.271,2167.665 L2667.568,2177.705 A1350.000,1350.000 0.000 0,0 2686.996,2143.071 Z" style="stroke-width:2.0;stroke:rgb(115,115,115);stroke-linecap:round;fill:none;" />
<path d="M2650.271,2167.665 A1330.000,1330.000 40.000 0,1 2632.137,2197.973 L2649.162,2208.468 A1350.000,1350.000 0.000 0,0 2667.568,2177.705 Z" style="stroke-width:2.0;stroke:rgb(115,115,115);stroke-linecap:round;fill:rgb(0,0,204);" />
<text x="2727.9" y="2252.2" font-size="39.0px" font-family="CMUBright-Roman" style="text-anchor:start;fill:rgb(0,0,0);" transform="rotate(30.9,2727.9,2252.2)" >TC</text>
<path d="M2650.271,2167.665 A1330.000,1330.000 40.000 0,1 2632.137,2197.973 L2649.162,2208.468 A1350.000,1350.000 0.000 0,0 2667.568,2177.705 Z" style="stroke-width:2.0;stroke:rgb(115,115,115);stroke-linecap:round;fill:none;" />
<path d="M2632.137,2197.973 A1330.000,1330.000 40.000 0,1 2613.205,2227.788 L2629.944,2238.732 A1350.000,1350.000 0.000 0,0 2649.162,2208.468 Z" style="stroke-width:2.0;stroke:rgb(115,115,115);stroke-linecap:round;fill:rgb(102,153,255);" />
<text x="2707.8" y="2284.1" font-size="39.0px" font-family="CMUBright-Roman" style="text-anchor:start;fill:rgb(0,0,0);" transform="rotate(32.4,2707.8,2284.1)" >TY</text>
<path d="M2632.137,2197.973 A1330.000,1330.000 40.000 0,1 2613.205,2227.788 L2629.944,2238.732 A1350.000,1350.000 0.000 0,0 2649.162,2208.468 Z" style="stroke-width:2.0;stroke:rgb(115,115,115);stroke-linecap:round;fill:none;" />
<path d="M2613.205,2227.788 A1330.000,1330.000 40.000 0,1 1971.243,2743.716 L1978.330,2762.419 A1350.000,1350.000 0.000 0,0 2629.944,2238.732 Z" style="stroke-width:2.0;stroke:rgb(115,115,115);stroke-linecap:round;fill:rgb(153,204,255);" />
<text x="2390.3" y="2631.8" font-size="39.0px" font-family="CMUBright-Roman" style="text-anchor:start;fill:rgb(0,0,0);" transform="rotate(51.2,2390.3,2631.8)" >CO1</text>
<path d="M2613.205,2227.788 A1330.000,1330.000 40.000 0,1 1971.243,2743.716 L1978.330,2762.419 A1350.000,1350.000 0.000 0,0 2629.944,2238.732 Z" style="stroke-width:2.0;stroke:rgb(115,115,115);stroke-linecap:round;fill:none;" />
<path d="M1971.243,2743.716 A1330.000,1330.000 40.000 0,1 1936.513,2756.326 L1943.077,2775.219 A1350.000,1350.000 0.000 0,0 1978.330,2762.419 Z" style="stroke-width:2.0;stroke:rgb(115,115,115);stroke-linecap:round;fill:rgb(0,255,255);" />
<text x="1977.3" y="2858.6" font-size="39.0px" font-family="CMUBright-Roman" style="text-anchor:start;fill:rgb(0,0,0);" transform="rotate(70.0,1977.3,2858.6)" >TS1</text>
<path d="M1971.243,2743.716 A1330.000,1330.000 40.000 0,1 1936.513,2756.326 L1943.077,2775.219 A1350.000,1350.000 0.000 0,0 1978.330,2762.419 Z" style="stroke-width:2.0;stroke:rgb(115,115,115);stroke-linecap:round;fill:none;" />
<path d="M1936.513,2756.326 A1330.000,1330.000 40.000 0,1 1901.964,2767.803 L1908.009,2786.868 A1350.000,1350.000 0.000 0,0 1943.077,2775.219 Z" style="stroke-width:2.0;stroke:rgb(115,115,115);stroke-linecap:round;fill:rgb(204,255,255);" />
<text x="1940.2" y="2871.1" font-size="39.0px" font-family="CMUBright-Roman" style="text-anchor:start;fill:rgb(0,0,0);" transform="rotate(71.6,1940.2,2871.1)" >TD</text>
<path d="M1936.513,2756.326 A1330.000,1330.000 40.000 0,1 1901.964,2767.803 L1908.009,2786.868 A1350.000,1350.000 0.000 0,0 1943.077,2775.219 Z" style="stroke-width:2.0;stroke:rgb(115,115,115);stroke-linecap:round;fill:none;" />
<path d="M1901.964,2767.803 A1330.000,1330.000 40.000 0,1 1537.217,2829.479 L1537.776,2849.471 A1350.000,1350.000 0.000 0,0 1908.009,2786.868 Z" style="stroke-width:2.0;stroke:rgb(115,115,115);stroke-linecap:round;fill:rgb(153,0,204);" />
<text x="1725.3" y="2922.3" font-size="39.0px" font-family="CMUBright-Roman" style="text-anchor:start;fill:rgb(0,0,0);" transform="rotate(80.4,1725.3,2922.3)" >CO2</text>
<path d="M1901.964,2767.803 A1330.000,1330.000 40.000 0,1 1537.217,2829.479 L1537.776,2849.471 A1350.000,1350.000 0.000 0,0 1908.009,2786.868 Z" style="stroke-width:2.0;stroke:rgb(115,115,115);stroke-linecap:round;fill:none;" />
<path d="M1537.217,2829.479 A1330.000,1330.000 40.000 0,1 1499.728,2830.000 L1499.724,2850.000 A1350.000,1350.000 0.000 0,0 1537.776,2849.471 Z" style="stroke-width:2.0;stroke:rgb(115,115,115);stroke-linecap:round;fill:rgb(204,51,255);" />
<text x="1505.5" y="2940.0" font-size="39.0px" font-family="CMUBright-Roman" style="text-anchor:start;fill:rgb(0,0,0);" transform="rotate(89.2,1505.5,2940.0)" >TK</text>
<path d="M1537.217,2829.479 A1330.000,1330.000 40.000 0,1 1499.728,2830.000 L1499.724,2850.000 A1350.000,1350.000 0.000 0,0 1537.776,2849.471 Z" style="stroke-width:2.0;stroke:rgb(115,115,115);stroke-linecap:round;fill:none;" />
<path d="M1499.728,2830.000 A1330.000,1330.000 40.000 0,1 1387.925,2825.269 L1386.240,2845.198 A1350.000,1350.000 0.000 0,0 1499.724,2850.000 Z" style="stroke-width:2.0;stroke:rgb(115,115,115);stroke-linecap:round;fill:rgb(204,153,255);" />
<text x="1454.1" y="2939.3" font-size="39.0px" font-family="CMUBright-Roman" style="text-anchor:end;fill:rgb(0,0,0);" transform="rotate(-87.6,1454.1,2939.3)" >ATP8</text>
<path d="M1499.728,2830.000 A1330.000,1330.000 40.000 0,1 1387.925,2825.269 L1386.240,2845.198 A1350.000,1350.000 0.000 0,0 1499.724,2850.000 Z" style="stroke-width:2.0;stroke:rgb(115,115,115);stroke-linecap:round;fill:none;" />
<path d="M1387.925,2825.269 A1330.000,1330.000 40.000 0,1 1028.757,2743.716 L1021.670,2762.419 A1350.000,1350.000 0.000 0,0 1386.240,2845.198 Z" style="stroke-width:2.0;stroke:rgb(115,115,115);stroke-linecap:round;fill:rgb(102,102,102);" />
<text x="1195.8" y="2907.5" font-size="39.0px" font-family="CMUBright-Roman" style="text-anchor:end;fill:rgb(0,0,0);" transform="rotate(-77.2,1195.8,2907.5)" >ATP6</text>
<path d="M1387.925,2825.269 A1330.000,1330.000 40.000 0,1 1028.757,2743.716 L1021.670,2762.419 A1350.000,1350.000 0.000 0,0 1386.240,2845.198 Z" style="stroke-width:2.0;stroke:rgb(115,115,115);stroke-linecap:round;fill:none;" />
<path d="M1028.757,2743.716 A1330.000,1330.000 40.000 0,1 661.551,2532.426 L648.943,2547.951 A1350.000,1350.000 0.000 0,0 1021.670,2762.419 Z" style="stroke-width:2.0;stroke:rgb(115,115,115);stroke-linecap:round;fill:rgb(153,153,153);" />
<text x="794.9" y="2755.5" font-size="39.0px" font-family="CMUBright-Roman" style="text-anchor:end;fill:rgb(0,0,0);" transform="rotate(-60.1,794.9,2755.5)" >CO3</text>
<path d="M1028.757,2743.716 A1330.000,1330.000 40.000 0,1 661.551,2532.426 L648.943,2547.951 A1350.000,1350.000 0.000 0,0 1021.670,2762.419 Z" style="stroke-width:2.0;stroke:rgb(115,115,115);stroke-linecap:round;fill:none;" />
<path d="M661.551,2532.426 A1330.000,1330.000 40.000 0,1 633.608,2509.091 L620.580,2524.266 A1350.000,1350.000 0.000 0,0 648.943,2547.951 Z" style="stroke-width:2.0;stroke:rgb(115,115,115);stroke-linecap:round;fill:rgb(204,204,204);" />
<text x="588.6" y="2614.8" font-size="39.0px" font-family="CMUBright-Roman" style="text-anchor:end;fill:rgb(0,0,0);" transform="rotate(-50.1,588.6,2614.8)" >TG</text>
<path d="M661.551,2532.426 A1330.000,1330.000 40.000 0,1 633.608,2509.091 L620.580,2524.266 A1350.000,1350.000 0.000 0,0 648.943,2547.951 Z" style="stroke-width:2.0;stroke:rgb(115,115,115);stroke-linecap:round;fill:none;" />
<path d="M633.608,2509.091 A1330.000,1330.000 40.000 0,1 500.438,2377.368 L485.407,2390.562 A1350.000,1350.000 0.000 0,0 620.580,2524.266 Z" style="stroke-width:2.0;stroke:rgb(115,115,115);stroke-linecap:round;fill:rgb(153,102,0);" />
<text x="498.1" y="2534.3" font-size="39.0px" font-family="CMUBright-Roman" style="text-anchor:end;fill:rgb(0,0,0);" transform="rotate(-45.3,498.1,2534.3)" >ND3</text>
<path d="M633.608,2509.091 A1330.000,1330.000 40.000 0,1 500.438,2377.368 L485.407,2390.562 A1350.000,1350.000 0.000 0,0 620.580,2524.266 Z" style="stroke-width:2.0;stroke:rgb(115,115,115);stroke-linecap:round;fill:none;" />
<path d="M500.438,2377.368 A1330.000,1330.000 40.000 0,1 477.841,2350.935 L462.470,2363.731 A1350.000,1350.000 0.000 0,0 485.407,2390.562 Z" style="stroke-width:2.0;stroke:rgb(115,115,115);stroke-linecap:round;fill:rgb(102,102,0);" />
<text x="414.9" y="2446.7" font-size="39.0px" font-family="CMUBright-Roman" style="text-anchor:end;fill:rgb(0,0,0);" transform="rotate(-40.5,414.9,2446.7)" >TR</text>
<path d="M500.438,2377.368 A1330.000,1330.000 40.000 0,1 477.841,2350.935 L462.470,2363.731 A1350.000,1350.000 0.000 0,0 485.407,2390.562 Z" style="stroke-width:2.0;stroke:rgb(115,115,115);stroke-linecap:round;fill:none;" />
<path d="M477.841,2350.935 A1330.000,1330.000 40.000 0,1 382.651,2221.409 L365.849,2232.257 A1350.000,1350.000 0.000 0,0 462.470,2363.731 Z" style="stroke-width:2.0;stroke:rgb(115,115,115);stroke-linecap:round;fill:rgb(153,153,30);" />
<text x="348.3" y="2364.4" font-size="39.0px" font-family="CMUBright-Roman" style="text-anchor:end;fill:rgb(0,0,0);" transform="rotate(-36.3,348.3,2364.4)" >ND4L</text>
<path d="M477.841,2350.935 A1330.000,1330.000 40.000 0,1 382.651,2221.409 L365.849,2232.257 A1350.000,1350.000 0.000 0,0 462.470,2363.731 Z" style="stroke-width:2.0;stroke:rgb(115,115,115);stroke-linecap:round;fill:none;" />
<path d="M382.651,2221.409 A1330.000,1330.000 40.000 0,1 170.076,1514.263 L150.078,1514.478 A1350.000,1350.000 0.000 0,0 365.849,2232.257 Z" style="stroke-width:2.0;stroke:rgb(115,115,115);stroke-linecap:round;fill:rgb(204,0,0);" />
<text x="125.2" y="1928.4" font-size="39.0px" font-family="CMUBright-Roman" style="text-anchor:end;fill:rgb(0,0,0);" transform="rotate(-16.7,125.2,1928.4)" >ND4</text>
<path d="M382.651,2221.409 A1330.000,1330.000 40.000 0,1 170.076,1514.263 L150.078,1514.478 A1350.000,1350.000 0.000 0,0 365.849,2232.257 Z" style="stroke-width:2.0;stroke:rgb(115,115,115);stroke-linecap:round;fill:none;" />
<path d="M170.076,1514.263 A1330.000,1330.000 40.000 0,1 170.193,1477.315 L150.196,1476.974 A1350.000,1350.000 0.000 0,0 150.078,1514.478 Z" style="stroke-width:2.0;stroke:rgb(115,115,115);stroke-linecap:round;fill:rgb(255,0,0);" />
<text x="60.0" y="1509.9" font-size="39.0px" font-family="CMUBright-Roman" style="text-anchor:end;fill:rgb(0,0,0);" transform="rotate(0.2,60.0,1509.9)" >TH</text>
<path d="M170.076,1514.263 A1330.000,1330.000 40.000 0,1 170.193,1477.315 L150.196,1476.974 A1350.000,1350.000 0.000 0,0 150.078,1514.478 Z" style="stroke-width:2.0;stroke:rgb(115,115,115);stroke-linecap:round;fill:none;" />
<path d="M170.193,1477.315 A1330.000,1330.000 40.000 0,1 171.104,1445.813 L151.121,1444.998 A1350.000,1350.000 0.000 0,0 150.196,1476.974 Z" style="stroke-width:2.0;stroke:rgb(115,115,115);stroke-linecap:round;fill:rgb(255,0,204);" />
<text x="60.2" y="1473.4" font-size="39.0px" font-family="CMUBright-Roman" style="text-anchor:end;fill:rgb(0,0,0);" transform="rotate(1.7,60.2,1473.4)" >TS2</text>
<path d="M170.193,1477.315 A1330.000,1330.000 40.000 0,1 171.104,1445.813 L151.121,1444.998 A1350.000,1350.000 0.000 0,0 150.196,1476.974 Z" style="stroke-width:2.0;stroke:rgb(115,115,115);stroke-linecap:round;fill:none;" />
<path d="M171.104,1445.813 A1330.000,1330.000 40.000 0,1 173.197,1407.835 L153.245,1406.449 A1350.000,1350.000 0.000 0,0 151.121,1444.998 Z" style="stroke-width:2.0;stroke:rgb(115,115,115);stroke-linecap:round;fill:rgb(255,204,204);" />
<text x="61.5" y="1435.2" font-size="39.0px" font-family="CMUBright-Roman" style="text-anchor:end;fill:rgb(0,0,0);" transform="rotate(3.2,61.5,1435.2)" >TL2</text>
<path d="M171.104,1445.813 A1330.000,1330.000 40.000 0,1 173.197,1407.835 L153.245,1406.449 A1350.000,1350.000 0.000 0,0 151.121,1444.998 Z" style="stroke-width:2.0;stroke:rgb(115,115,115);stroke-linecap:round;fill:none;" />
<path d="M173.197,1407.835 A1330.000,1330.000 40.000 0,1 582.243,537.388 L568.442,522.913 A1350.000,1350.000 0.000 0,0 153.245,1406.449 Z" style="stroke-width:2.0;stroke:rgb(115,115,115);stroke-linecap:round;fill:rgb(255,153,0);" />
<text x="190.4" y="901.2" font-size="39.0px" font-family="CMUBright-Roman" style="text-anchor:end;fill:rgb(0,0,0);" transform="rotate(25.2,190.4,901.2)" >ND5</text>
<path d="M173.197,1407.835 A1330.000,1330.000 40.000 0,1 582.243,537.388 L568.442,522.913 A1350.000,1350.000 0.000 0,0 153.245,1406.449 Z" style="stroke-width:2.0;stroke:rgb(115,115,115);stroke-linecap:round;fill:none;" />
<path d="M582.243,537.388 A1330.000,1330.000 40.000 0,1 807.702,364.384 L797.292,347.307 A1350.000,1350.000 0.000 0,0 568.442,522.913 Z" style="stroke-width:2.0;stroke:rgb(115,115,115);stroke-linecap:round;fill:rgb(255,204,0);" />
<text x="611.5" y="366.8" font-size="39.0px" font-family="CMUBright-Roman" style="text-anchor:end;fill:rgb(0,0,0);" transform="rotate(52.5,611.5,366.8)" >ND6</text>
<path d="M582.243,537.388 A1330.000,1330.000 40.000 0,1 807.702,364.384 L797.292,347.307 A1350.000,1350.000 0.000 0,0 568.442,522.913 Z" style="stroke-width:2.0;stroke:rgb(115,115,115);stroke-linecap:round;fill:none;" />
<path d="M807.702,364.384 A1330.000,1330.000 40.000 0,1 839.515,345.591 L829.583,328.232 A1350.000,1350.000 0.000 0,0 797.292,347.307 Z" style="stroke-width:2.0;stroke:rgb(115,115,115);stroke-linecap:round;fill:rgb(255,255,0);" />
<text x="755.1" y="267.6" font-size="39.0px" font-family="CMUBright-Roman" style="text-anchor:end;fill:rgb(0,0,0);" transform="rotate(59.4,755.1,267.6)" >TE</text>
<path d="M807.702,364.384 A1330.000,1330.000 40.000 0,1 839.515,345.591 L829.583,328.232 A1350.000,1350.000 0.000 0,0 797.292,347.307 Z" style="stroke-width:2.0;stroke:rgb(115,115,115);stroke-linecap:round;fill:none;" />
<path d="M839.515,345.591 A1330.000,1330.000 40.000 0,1 1428.309,171.934 L1427.231,151.963 A1350.000,1350.000 0.000 0,0 829.583,328.232 Z" style="stroke-width:2.0;stroke:rgb(115,115,115);stroke-linecap:round;fill:rgb(204,255,0);" />
<text x="1078.3" y="123.1" font-size="39.0px" font-family="CMUBright-Roman" style="text-anchor:end;fill:rgb(0,0,0);" transform="rotate(73.6,1078.3,123.1)" >CYB</text>
<path d="M839.515,345.591 A1330.000,1330.000 40.000 0,1 1428.309,171.934 L1427.231,151.963 A1350.000,1350.000 0.000 0,0 829.583,328.232 Z" style="stroke-width:2.0;stroke:rgb(115,115,115);stroke-linecap:round;fill:none;" />
<path d="M1428.309,171.934 A1330.000,1330.000 40.000 0,1 1463.598,170.498 L1463.051,150.506 A1350.000,1350.000 0.000 0,0 1427.231,151.963 Z" style="stroke-width:2.0;stroke:rgb(115,115,115);stroke-linecap:round;fill:rgb(0,255,0);" />
<text x="1427.0" y="61.9" font-size="39.0px" font-family="CMUBright-Roman" style="text-anchor:end;fill:rgb(0,0,0);" transform="rotate(87.7,1427.0,61.9)" >TT</text>
<path d="M1428.309,171.934 A1330.000,1330.000 40.000 0,1 1463.598,170.498 L1463.051,150.506 A1350.000,1350.000 0.000 0,0 1427.231,151.963 Z" style="stroke-width:2.0;stroke:rgb(115,115,115);stroke-linecap:round;fill:none;" />
<path d="M1463.598,170.498 A1330.000,1330.000 40.000 0,1 1500.000,170.000 L1500.000,150.000 A1350.000,1350.000 0.000 0,0 1463.051,150.506 Z" style="stroke-width:2.0;stroke:rgb(115,115,115);stroke-linecap:round;fill:rgb(53,128,0);" />
<text x="1465.8" y="60.4" font-size="39.0px" font-family="CMUBright-Roman" style="text-anchor:end;fill:rgb(0,0,0);" transform="rotate(89.2,1465.8,60.4)" >TP</text>
<path d="M1463.598,170.498 A1330.000,1330.000 40.000 0,1 1500.000,170.000 L1500.000,150.000 A1350.000,1350.000 0.000 0,0 1463.051,150.506 Z" style="stroke-width:2.0;stroke:rgb(115,115,115);stroke-linecap:round;fill:none;" />
</g>
<defs>
<pattern id="hline-sparse" width="10" height="10" patternTransform="rotate(0 0 0)" patternUnits="userSpaceOnUse"><line x1="0" y1="0" x2="10" y2="0" style="stroke:black;stroke-width:2" /></pattern>
<pattern id="checker" width="10" height="10" patternTransform="rotate(45 0 0)" patternUnits="userSpaceOnUse"><line x1="0" y1="0" x2="10" y2="0" style="stroke:black;stroke-width:2" /><line x1="0" y1="0" x2="0" y2="10" style="stroke:black;stroke-width:2" /></pattern>
<pattern id="checker" width="10" height="10" patternTransform="rotate(45 0 0)" patternUnits="userSpaceOnUse"><line x1="0" y1="0" x2="10" y2="0" style="stroke:black;stroke-width:5" /><line x1="0" y1="0" x2="0" y2="10" style="stroke:black;stroke-width:4" /></pattern>
<pattern id="hline" width="10" height="10" patternTransform="rotate(0 0 0)" patternUnits="userSpaceOnUse"><line x1="0" y1="0" x2="10" y2="0" style="stroke:black;stroke-width:5" /></pattern>
<pattern id="vline-sparse" width="10" height="10" patternTransform="rotate(0 0 0)" patternUnits="userSpaceOnUse"><line x1="0" y1="0" x2="0" y2="10" style="stroke:black;stroke-width:2" /></pattern>
<pattern id="vline" width="10" height="10" patternTransform="rotate(0 0 0)" patternUnits="userSpaceOnUse"><line x1="0" y1="0" x2="0" y2="10" style="stroke:black;stroke-width:5" /></pattern>
</defs>
</svg>
