<?xml version="1.0" encoding="utf-8" standalone="no"?>
<!DOCTYPE svg PUBLIC "-//W3C//DTD SVG 1.1//EN" "http://www.w3.org/Graphics/SVG/1.1/DTD/svg11.dtd">
<svg width="3000px" height="3000px" version="1.1" xmlns="http://www.w3.org/2000/svg" xmlns:xlink="http://www.w3.org/1999/xlink">
<g id="bg">
<rect x="0" y="0" width="3000px" height="3000px" style="fill:rgb(255,255,255);"/>
</g>
<g id="ideograms">
<path d="M1500.000,200.000 A1300.000,1300.000 40.000 1,1 1499.773,200.000 L1499.764,150.000 A1350.000,1350.000 0.000 1,0 1500.000,150.000 Z" style="stroke-width:2.0;stroke:rgb(115,115,115);stroke-linecap:round;fill:rgb(255,255,255);" />
<path d="M1791.637,233.135 A1300.000,1300.000 40.000 0,1 1826.298,241.616 L1838.848,193.217 A1350.000,1350.000 0.000 0,0 1802.854,184.409 Z" style="stroke-linecap:round;fill:rgb(153,102,0);" />
<path d="M1826.791,241.744 A1300.000,1300.000 40.000 0,1 2263.585,447.889 L2292.953,407.423 A1350.000,1350.000 0.000 0,0 1839.360,193.350 Z" style="stroke-linecap:round;fill:rgb(102,102,0);" />
<path d="M2263.997,448.188 A1300.000,1300.000 40.000 0,1 2291.769,468.932 L2322.222,429.275 A1350.000,1350.000 0.000 0,0 2293.382,407.734 Z" style="stroke-linecap:round;fill:rgb(153,153,30);" />
<path d="M2292.173,469.242 A1300.000,1300.000 40.000 0,1 2740.161,1110.126 L2787.859,1095.131 A1350.000,1350.000 0.000 0,0 2322.641,429.598 Z" style="stroke-linecap:round;fill:rgb(204,0,0);" />
<path d="M2740.313,1110.612 A1300.000,1300.000 40.000 0,1 2751.089,1146.763 L2799.208,1133.176 A1350.000,1350.000 0.000 0,0 2788.018,1095.636 Z" style="stroke-linecap:round;fill:rgb(255,0,0);" />
<path d="M2751.504,1148.235 A1300.000,1300.000 40.000 0,1 2793.442,1630.410 L2843.190,1635.426 A1350.000,1350.000 0.000 0,0 2799.638,1134.705 Z" style="stroke-linecap:round;fill:rgb(255,0,204);" />
<path d="M2793.391,1630.918 A1300.000,1300.000 40.000 0,1 2789.441,1665.355 L2839.035,1671.715 A1350.000,1350.000 0.000 0,0 2843.137,1635.953 Z" style="stroke-linecap:round;fill:rgb(255,204,204);" />
<path d="M2789.570,1664.344 A1300.000,1300.000 40.000 0,1 2784.495,1700.180 L2833.899,1707.879 A1350.000,1350.000 0.000 0,0 2839.169,1670.665 Z" style="stroke-linecap:round;fill:rgb(255,153,0);" />
<path d="M2784.338,1701.187 A1300.000,1300.000 40.000 0,1 2778.609,1734.857 L2827.787,1743.890 A1350.000,1350.000 0.000 0,0 2833.736,1708.925 Z" style="stroke-linecap:round;fill:rgb(255,204,0);" />
<path d="M2778.517,1735.358 A1300.000,1300.000 40.000 0,1 2580.034,2223.552 L2621.573,2251.381 A1350.000,1350.000 0.000 0,0 2827.691,1744.411 Z" style="stroke-linecap:round;fill:rgb(255,255,0);" />
<path d="M2579.750,2223.976 A1300.000,1300.000 40.000 0,1 2560.358,2252.091 L2601.141,2281.017 A1350.000,1350.000 0.000 0,0 2621.279,2251.821 Z" style="stroke-linecap:round;fill:rgb(204,255,0);" />
<path d="M2557.994,2255.414 A1300.000,1300.000 40.000 0,1 2537.477,2283.353 L2577.380,2313.482 A1350.000,1350.000 0.000 0,0 2598.686,2284.468 Z" style="stroke-linecap:round;fill:rgb(0,255,0);" />
<path d="M2536.862,2284.167 A1300.000,1300.000 40.000 0,1 2514.312,2313.125 L2553.324,2344.399 A1350.000,1350.000 0.000 0,0 2576.741,2314.327 Z" style="stroke-linecap:round;fill:rgb(53,128,0);" />
<path d="M2504.029,2325.788 A1300.000,1300.000 40.000 0,1 2482.657,2351.109 L2520.451,2383.844 A1350.000,1350.000 0.000 0,0 2542.645,2357.549 Z" style="stroke-linecap:round;fill:rgb(0,0,204);" />
<path d="M2482.657,2351.109 A1300.000,1300.000 40.000 0,1 2460.646,2375.876 L2497.594,2409.564 A1350.000,1350.000 0.000 0,0 2520.451,2383.844 Z" style="stroke-linecap:round;fill:rgb(102,153,255);" />
<path d="M2456.168,2380.762 A1300.000,1300.000 40.000 0,1 1786.419,2768.055 L1797.435,2816.827 A1350.000,1350.000 0.000 0,0 2492.944,2414.638 Z" style="stroke-linecap:round;fill:rgb(153,204,255);" />
<path d="M1785.921,2768.168 A1300.000,1300.000 40.000 0,1 1752.008,2775.340 L1761.701,2824.391 A1350.000,1350.000 0.000 0,0 1796.918,2816.943 Z" style="stroke-linecap:round;fill:rgb(0,255,255);" />
<path d="M1750.007,2775.734 A1300.000,1300.000 40.000 0,1 1716.407,2781.861 L1724.731,2831.163 A1350.000,1350.000 0.000 0,0 1759.623,2824.800 Z" style="stroke-linecap:round;fill:rgb(204,255,255);" />
<path d="M1715.905,2781.946 A1300.000,1300.000 40.000 0,1 1368.956,2793.378 L1363.915,2843.124 A1350.000,1350.000 0.000 0,0 1724.209,2831.251 Z" style="stroke-linecap:round;fill:rgb(153,0,204);" />
<path d="M1355.776,2791.975 A1300.000,1300.000 40.000 0,1 1320.876,2787.600 L1313.986,2837.123 A1350.000,1350.000 0.000 0,0 1350.229,2841.666 Z" style="stroke-linecap:round;fill:rgb(204,51,255);" />
<path d="M1319.866,2787.459 A1300.000,1300.000 40.000 0,1 1216.566,2768.726 L1205.664,2817.523 A1350.000,1350.000 0.000 0,0 1312.938,2836.977 Z" style="stroke-linecap:round;fill:rgb(204,153,255);" />
<path d="M1238.997,2773.529 A1300.000,1300.000 40.000 0,1 912.642,2659.746 L890.051,2704.351 A1350.000,1350.000 0.000 0,0 1228.958,2822.511 Z" style="stroke-linecap:round;fill:rgb(102,102,102);" />
<path d="M912.642,2659.746 A1300.000,1300.000 40.000 0,1 589.589,2427.983 L554.574,2463.675 A1350.000,1350.000 0.000 0,0 890.051,2704.351 Z" style="stroke-linecap:round;fill:rgb(153,153,153);" />
<path d="M589.226,2427.626 A1300.000,1300.000 40.000 0,1 565.171,2403.380 L529.216,2438.125 A1350.000,1350.000 0.000 0,0 554.196,2463.304 Z" style="stroke-linecap:round;fill:rgb(204,204,204);" />
<path d="M564.817,2403.013 A1300.000,1300.000 40.000 0,1 451.569,2268.630 L411.244,2298.192 A1350.000,1350.000 0.000 0,0 528.848,2437.744 Z" style="stroke-linecap:round;fill:rgb(153,102,0);" />
<path d="M451.267,2268.219 A1300.000,1300.000 40.000 0,1 432.320,2241.660 L391.255,2270.185 A1350.000,1350.000 0.000 0,0 410.931,2297.765 Z" style="stroke-linecap:round;fill:rgb(102,102,0);" />
<path d="M432.029,2241.241 A1300.000,1300.000 40.000 0,1 353.371,2112.570 L309.270,2136.130 A1350.000,1350.000 0.000 0,0 390.953,2269.750 Z" style="stroke-linecap:round;fill:rgb(153,153,30);" />
<path d="M354.815,2115.266 A1300.000,1300.000 40.000 0,1 201.433,1438.977 L151.488,1436.630 A1350.000,1350.000 0.000 0,0 310.770,2138.930 Z" style="stroke-linecap:round;fill:rgb(204,0,0);" />
<path d="M201.457,1438.468 A1300.000,1300.000 40.000 0,1 203.559,1403.868 L153.696,1400.170 A1350.000,1350.000 0.000 0,0 151.513,1436.101 Z" style="stroke-linecap:round;fill:rgb(255,0,0);" />
<path d="M203.597,1403.359 A1300.000,1300.000 40.000 0,1 206.130,1373.902 L156.366,1369.052 A1350.000,1350.000 0.000 0,0 153.735,1399.642 Z" style="stroke-linecap:round;fill:rgb(255,0,204);" />
<path d="M206.180,1373.394 A1300.000,1300.000 40.000 0,1 210.142,1337.932 L160.532,1331.698 A1350.000,1350.000 0.000 0,0 156.417,1368.525 Z" style="stroke-linecap:round;fill:rgb(255,204,204);" />
<path d="M210.206,1337.426 A1300.000,1300.000 40.000 0,1 627.992,535.841 L594.453,498.758 A1350.000,1350.000 0.000 0,0 160.598,1331.173 Z" style="stroke-linecap:round;fill:rgb(255,153,0);" />
<path d="M628.370,535.499 A1300.000,1300.000 40.000 0,1 843.499,377.945 L818.249,334.789 A1350.000,1350.000 0.000 0,0 594.846,498.403 Z" style="stroke-linecap:round;fill:rgb(255,204,0);" />
<path d="M843.939,377.688 A1300.000,1300.000 40.000 0,1 874.095,360.595 L850.022,316.772 A1350.000,1350.000 0.000 0,0 818.706,334.522 Z" style="stroke-linecap:round;fill:rgb(255,255,0);" />
<path d="M876.331,359.370 A1300.000,1300.000 40.000 0,1 1430.703,201.848 L1428.038,151.919 A1350.000,1350.000 0.000 0,0 852.343,315.500 Z" style="stroke-linecap:round;fill:rgb(204,255,0);" />
<path d="M1431.212,201.821 A1300.000,1300.000 40.000 0,1 1464.320,200.490 L1462.948,150.509 A1350.000,1350.000 0.000 0,0 1428.567,151.891 Z" style="stroke-linecap:round;fill:rgb(0,255,0);" />
<path d="M1465.849,200.449 A1300.000,1300.000 40.000 0,1 1500.000,200.000 L1500.000,150.000 A1350.000,1350.000 0.000 0,0 1464.535,150.466 Z" style="stroke-linecap:round;fill:rgb(53,128,0);" />
<text x="1485.5" y="2939.9" font-size="39.0px" font-family="CMUBright-Roman" style="text-anchor:start;fill:rgb(0,0,0);" transform="rotate(90.0,1485.5,2939.9)" >MT</text>
<line x1='1500.0' y1='150.0' x2='1500.0' y2='135.0' style="stroke-width:2.0;stroke:rgb(0,0,0);stroke-linecap:round;fill:none;" />
<text x="1510.0" y="125.0" font-size="26.0px" font-family="CMUBright-Roman" style="text-anchor:start;fill:rgb(0,0,0);" transform="rotate(270.0,1510.0,125.0)" >0</text>
<path d="M1500.000,200.000 A1300.000,1300.000 40.000 1,1 1499.773,200.000 L1499.764,150.000 A1350.000,1350.000 0.000 1,0 1500.000,150.000 Z" style="stroke-width:2.0;stroke:rgb(115,115,115);stroke-linecap:round;fill:none;" />
</g>
<defs>
<pattern id="hline-sparse" width="10" height="10" patternTransform="rotate(0 0 0)" patternUnits="userSpaceOnUse"><line x1="0" y1="0" x2="10" y2="0" style="stroke:black;stroke-width:2" /></pattern>
<pattern id="checker" width="10" height="10" patternTransform="rotate(45 0 0)" patternUnits="userSpaceOnUse"><line x1="0" y1="0" x2="10" y2="0" style="stroke:black;stroke-width:2" /><line x1="0" y1="0" x2="0" y2="10" style="stroke:black;stroke-width:2" /></pattern>
<pattern id="checker" width="10" height="10" patternTransform="rotate(45 0 0)" patternUnits="userSpaceOnUse"><line x1="0" y1="0" x2="10" y2="0" style="stroke:black;stroke-width:5" /><line x1="0" y1="0" x2="0" y2="10" style="stroke:black;stroke-width:4" /></pattern>
<pattern id="hline" width="10" height="10" patternTransform="rotate(0 0 0)" patternUnits="userSpaceOnUse"><line x1="0" y1="0" x2="10" y2="0" style="stroke:black;stroke-width:5" /></pattern>
<pattern id="vline-sparse" width="10" height="10" patternTransform="rotate(0 0 0)" patternUnits="userSpaceOnUse"><line x1="0" y1="0" x2="0" y2="10" style="stroke:black;stroke-width:2" /></pattern>
<pattern id="vline" width="10" height="10" patternTransform="rotate(0 0 0)" patternUnits="userSpaceOnUse"><line x1="0" y1="0" x2="0" y2="10" style="stroke:black;stroke-width:5" /></pattern>
</defs>
</svg>
